SeN-CBL.ufo
<glyph name="quotedbl" format="2">
  <advance width="370"/>
  <unicode hex="0022"/>
  <outline>
    <contour>
      <point x="323" y="793" type="line"/>
      <point x="196" y="793" type="line"/>
      <point x="210" y="526" type="line"/>
      <point x="307" y="526" type="line"/>
    </contour>
    <contour>
      <point x="177" y="793" type="line"/>
      <point x="49" y="793" type="line"/>
      <point x="67" y="526" type="line"/>
      <point x="163" y="526" type="line"/>
    </contour>
  </outline>
</glyph>
<glyph name="dollar" format="2">
  <advance width="485"/>
  <unicode hex="0024"/>
  <outline>
    <contour>
      <point x="191" y="804" type="line"/>
      <point x="191" y="725" type="line"/>
      <point x="180" y="722"/>
      <point x="170" y="719"/>
      <point x="160" y="716" type="curve" smooth="yes"/>
      <point x="134" y="706"/>
      <point x="112" y="693"/>
      <point x="95" y="679" type="curve" smooth="yes"/>
      <point x="77" y="663"/>
      <point x="62" y="643"/>
      <point x="51" y="619" type="curve" smooth="yes"/>
      <point x="39" y="595"/>
      <point x="33" y="566"/>
      <point x="33" y="532" type="curve" smooth="yes"/>
      <point x="33" y="492"/>
      <point x="39" y="460"/>
      <point x="52" y="435" type="curve" smooth="yes"/>
      <point x="64" y="409"/>
      <point x="80" y="388"/>
      <point x="98" y="372" type="curve" smooth="yes"/>
      <point x="116" y="357"/>
      <point x="139" y="344"/>
      <point x="167" y="333" type="curve" smooth="yes"/>
      <point x="175" y="329"/>
      <point x="183" y="326"/>
      <point x="191" y="323" type="curve"/>
      <point x="191" y="86" type="line"/>
      <point x="184" y="89"/>
      <point x="178" y="93"/>
      <point x="174" y="99" type="curve" smooth="yes"/>
      <point x="158" y="114"/>
      <point x="151" y="141"/>
      <point x="151" y="179" type="curve"/>
      <point x="21" y="179" type="line"/>
      <point x="27" y="111"/>
      <point x="47" y="60"/>
      <point x="82" y="28" type="curve" smooth="yes"/>
      <point x="108" y="2"/>
      <point x="144" y="-13"/>
      <point x="191" y="-19" type="curve"/>
      <point x="191" y="-106" type="line"/>
      <point x="286" y="-106" type="line"/>
      <point x="286" y="-18" type="line"/>
      <point x="298" y="-15"/>
      <point x="311" y="-12"/>
      <point x="324" y="-8" type="curve" smooth="yes"/>
      <point x="351" y="1"/>
      <point x="374" y="14"/>
      <point x="394" y="30" type="curve" smooth="yes"/>
      <point x="412" y="46"/>
      <point x="428" y="68"/>
      <point x="440" y="95" type="curve" smooth="yes"/>
      <point x="452" y="121"/>
      <point x="458" y="152"/>
      <point x="458" y="190" type="curve" smooth="yes"/>
      <point x="458" y="228"/>
      <point x="450" y="260"/>
      <point x="436" y="286" type="curve" smooth="yes"/>
      <point x="420" y="311"/>
      <point x="403" y="332"/>
      <point x="383" y="348" type="curve" smooth="yes"/>
      <point x="363" y="364"/>
      <point x="338" y="378"/>
      <point x="309" y="391" type="curve" smooth="yes"/>
      <point x="300" y="394"/>
      <point x="292" y="397"/>
      <point x="286" y="400" type="curve"/>
      <point x="286" y="619" type="line"/>
      <point x="290" y="615"/>
      <point x="295" y="612"/>
      <point x="300" y="608" type="curve" smooth="yes"/>
      <point x="314" y="591"/>
      <point x="321" y="566"/>
      <point x="322" y="532" type="curve"/>
      <point x="447" y="532" type="line"/>
      <point x="447" y="569"/>
      <point x="441" y="598"/>
      <point x="430" y="620" type="curve" smooth="yes"/>
      <point x="418" y="641"/>
      <point x="404" y="660"/>
      <point x="388" y="676" type="curve" smooth="yes"/>
      <point x="371" y="690"/>
      <point x="351" y="703"/>
      <point x="329" y="714" type="curve" smooth="yes"/>
      <point x="316" y="720"/>
      <point x="302" y="724"/>
      <point x="286" y="726" type="curve"/>
      <point x="286" y="804" type="line"/>
    </contour>
    <contour>
      <point x="286" y="280" type="line"/>
      <point x="295" y="273"/>
      <point x="303" y="266"/>
      <point x="309" y="260" type="curve" smooth="yes"/>
      <point x="317" y="250"/>
      <point x="324" y="239"/>
      <point x="330" y="227" type="curve" smooth="yes"/>
      <point x="335" y="213"/>
      <point x="338" y="199"/>
      <point x="338" y="183" type="curve" smooth="yes"/>
      <point x="338" y="164"/>
      <point x="335" y="148"/>
      <point x="329" y="134" type="curve" smooth="yes"/>
      <point x="322" y="120"/>
      <point x="314" y="108"/>
      <point x="305" y="99" type="curve" smooth="yes"/>
      <point x="299" y="93"/>
      <point x="293" y="88"/>
      <point x="286" y="84" type="curve"/>
    </contour>
    <contour>
      <point x="191" y="441" type="line"/>
      <point x="183" y="445"/>
      <point x="178" y="450"/>
      <point x="174" y="456" type="curve" smooth="yes"/>
      <point x="168" y="464"/>
      <point x="163" y="474"/>
      <point x="159" y="488" type="curve" smooth="yes"/>
      <point x="154" y="500"/>
      <point x="152" y="516"/>
      <point x="152" y="536" type="curve" smooth="yes"/>
      <point x="152" y="554"/>
      <point x="154" y="569"/>
      <point x="159" y="581" type="curve" smooth="yes"/>
      <point x="163" y="593"/>
      <point x="169" y="602"/>
      <point x="177" y="610" type="curve" smooth="yes"/>
      <point x="181" y="614"/>
      <point x="185" y="618"/>
      <point x="191" y="622" type="curve"/>
    </contour>
  </outline>
</glyph>
<glyph name="ampersand" format="2">
  <advance width="688"/>
  <unicode hex="0026"/>
  <outline>
    <contour>
      <point x="704" y="-15" type="line"/>
      <point x="571" y="161" type="line"/>
      <point x="658" y="258" type="line"/>
      <point x="570" y="338" type="line"/>
      <point x="499" y="255" type="line"/>
      <point x="381" y="409" type="line"/>
      <point x="388" y="413"/>
      <point x="400" y="423"/>
      <point x="418" y="437" type="curve" smooth="yes"/>
      <point x="443" y="457"/>
      <point x="464" y="480"/>
      <point x="480" y="508" type="curve" smooth="yes"/>
      <point x="495" y="534"/>
      <point x="502" y="560"/>
      <point x="502" y="585" type="curve" smooth="yes"/>
      <point x="501" y="611"/>
      <point x="495" y="635"/>
      <point x="485" y="656" type="curve" smooth="yes"/>
      <point x="473" y="676"/>
      <point x="459" y="692"/>
      <point x="443" y="705" type="curve" smooth="yes"/>
      <point x="425" y="717"/>
      <point x="405" y="726"/>
      <point x="384" y="733" type="curve" smooth="yes"/>
      <point x="362" y="739"/>
      <point x="340" y="743"/>
      <point x="320" y="743" type="curve" smooth="yes"/>
      <point x="292" y="743"/>
      <point x="267" y="738"/>
      <point x="245" y="728" type="curve" smooth="yes"/>
      <point x="223" y="718"/>
      <point x="203" y="705"/>
      <point x="187" y="690" type="curve" smooth="yes"/>
      <point x="173" y="674"/>
      <point x="162" y="656"/>
      <point x="154" y="636" type="curve" smooth="yes"/>
      <point x="146" y="615"/>
      <point x="143" y="593"/>
      <point x="145" y="569" type="curve" smooth="yes"/>
      <point x="147" y="545"/>
      <point x="154" y="521"/>
      <point x="167" y="498" type="curve" smooth="yes"/>
      <point x="179" y="474"/>
      <point x="195" y="451"/>
      <point x="215" y="428" type="curve"/>
      <point x="214" y="428"/>
      <point x="202" y="419"/>
      <point x="179" y="403" type="curve" smooth="yes"/>
      <point x="155" y="385"/>
      <point x="128" y="361"/>
      <point x="99" y="331" type="curve" smooth="yes"/>
      <point x="69" y="299"/>
      <point x="51" y="262"/>
      <point x="45" y="219" type="curve" smooth="yes"/>
      <point x="38" y="175"/>
      <point x="43" y="134"/>
      <point x="59" y="98" type="curve" smooth="yes"/>
      <point x="78" y="56"/>
      <point x="107" y="25"/>
      <point x="147" y="3" type="curve" smooth="yes"/>
      <point x="186" y="-19"/>
      <point x="227" y="-28"/>
      <point x="271" y="-26" type="curve" smooth="yes"/>
      <point x="297" y="-25"/>
      <point x="322" y="-21"/>
      <point x="346" y="-13" type="curve" smooth="yes"/>
      <point x="369" y="-5"/>
      <point x="391" y="4"/>
      <point x="412" y="16" type="curve" smooth="yes"/>
      <point x="448" y="38"/>
      <point x="474" y="56"/>
      <point x="488" y="70" type="curve"/>
      <point x="553" y="-15" type="line"/>
    </contour>
    <contour>
      <point x="377" y="591" type="curve" smooth="yes"/>
      <point x="377" y="576"/>
      <point x="371" y="561"/>
      <point x="360" y="547" type="curve" smooth="yes"/>
      <point x="348" y="531"/>
      <point x="338" y="519"/>
      <point x="328" y="509" type="curve" smooth="yes"/>
      <point x="311" y="495" type="line"/>
      <point x="311" y="496"/>
      <point x="304" y="507"/>
      <point x="292" y="528" type="curve" smooth="yes"/>
      <point x="278" y="548"/>
      <point x="272" y="566"/>
      <point x="272" y="584" type="curve" smooth="yes"/>
      <point x="272" y="602"/>
      <point x="277" y="617"/>
      <point x="288" y="629" type="curve" smooth="yes"/>
      <point x="298" y="641"/>
      <point x="310" y="647"/>
      <point x="322" y="647" type="curve" smooth="yes"/>
      <point x="335" y="647"/>
      <point x="348" y="641"/>
      <point x="360" y="630" type="curve" smooth="yes"/>
      <point x="371" y="618"/>
      <point x="377" y="605"/>
    </contour>
    <contour>
      <point x="421" y="160" type="line"/>
      <point x="403" y="140"/>
      <point x="379" y="122"/>
      <point x="348" y="104" type="curve" smooth="yes"/>
      <point x="316" y="86"/>
      <point x="289" y="77"/>
      <point x="268" y="77" type="curve" smooth="yes"/>
      <point x="251" y="77"/>
      <point x="234" y="84"/>
      <point x="216" y="97" type="curve" smooth="yes"/>
      <point x="198" y="109"/>
      <point x="185" y="122"/>
      <point x="179" y="138" type="curve" smooth="yes"/>
      <point x="169" y="162"/>
      <point x="167" y="185"/>
      <point x="173" y="209" type="curve" smooth="yes"/>
      <point x="179" y="231"/>
      <point x="188" y="250"/>
      <point x="202" y="266" type="curve" smooth="yes"/>
      <point x="232" y="300"/>
      <point x="259" y="324"/>
      <point x="281" y="339" type="curve"/>
    </contour>
  </outline>
</glyph>
<glyph name="quotesingle" format="2">
  <advance width="291"/>
  <unicode hex="0027"/>
  <outline>
    <contour>
      <point x="187" y="793" type="line"/>
      <point x="48" y="793" type="line"/>
      <point x="64" y="526" type="line"/>
      <point x="173" y="526" type="line"/>
    </contour>
  </outline>
</glyph>
<glyph name="parenleft" format="2">
  <advance width="340"/>
  <unicode hex="0028"/>
  <outline>
    <contour>
      <point x="102" y="270" type="line" smooth="yes"/>
      <point x="101" y="235"/>
      <point x="103" y="196"/>
      <point x="107" y="153" type="curve" smooth="yes"/>
      <point x="110" y="109"/>
      <point x="117" y="68"/>
      <point x="128" y="28" type="curve" smooth="yes"/>
      <point x="139" y="-14"/>
      <point x="158" y="-54"/>
      <point x="184" y="-91" type="curve" smooth="yes"/>
      <point x="210" y="-127"/>
      <point x="256" y="-152"/>
      <point x="322" y="-168" type="curve"/>
      <point x="322" y="-78" type="line"/>
      <point x="302" y="-68"/>
      <point x="287" y="-53"/>
      <point x="278" y="-35" type="curve" smooth="yes"/>
      <point x="268" y="-15"/>
      <point x="259" y="8"/>
      <point x="252" y="36" type="curve" smooth="yes"/>
      <point x="244" y="64"/>
      <point x="239" y="95"/>
      <point x="235" y="130" type="curve" smooth="yes"/>
      <point x="231" y="164"/>
      <point x="229" y="200"/>
      <point x="229" y="238" type="curve" smooth="yes"/>
      <point x="229" y="421" type="line" smooth="yes"/>
      <point x="229" y="459"/>
      <point x="231" y="495"/>
      <point x="235" y="530" type="curve" smooth="yes"/>
      <point x="239" y="564"/>
      <point x="244" y="595"/>
      <point x="252" y="623" type="curve" smooth="yes"/>
      <point x="259" y="651"/>
      <point x="268" y="674"/>
      <point x="278" y="694" type="curve" smooth="yes"/>
      <point x="287" y="712"/>
      <point x="302" y="727"/>
      <point x="322" y="737" type="curve"/>
      <point x="322" y="827" type="line"/>
      <point x="256" y="811"/>
      <point x="210" y="786"/>
      <point x="184" y="750" type="curve" smooth="yes"/>
      <point x="158" y="713"/>
      <point x="139" y="673"/>
      <point x="128" y="631" type="curve" smooth="yes"/>
      <point x="117" y="591"/>
      <point x="110" y="549"/>
      <point x="107" y="507" type="curve" smooth="yes"/>
      <point x="103" y="463"/>
      <point x="102" y="424"/>
      <point x="102" y="389" type="curve" smooth="yes"/>
    </contour>
  </outline>
</glyph>
<glyph name="comma" format="2">
  <advance width="224"/>
  <unicode hex="002C"/>
  <outline>
    <contour>
      <point x="194" y="103" type="line"/>
      <point x="52" y="103" type="line"/>
      <point x="25" y="-165" type="line"/>
      <point x="136" y="-165" type="line"/>
    </contour>
  </outline>
</glyph>
<glyph name="two" format="2">
  <advance width="490"/>
  <unicode hex="0032"/>
  <outline>
    <contour>
      <point x="463" y="-16" type="line"/>
      <point x="463" y="98" type="line"/>
      <point x="200" y="98" type="line"/>
      <point x="236" y="133"/>
      <point x="277" y="179"/>
      <point x="323" y="236" type="curve" smooth="yes"/>
      <point x="368" y="292"/>
      <point x="403" y="347"/>
      <point x="429" y="401" type="curve" smooth="yes"/>
      <point x="435" y="416"/>
      <point x="441" y="434"/>
      <point x="445" y="455" type="curve" smooth="yes"/>
      <point x="448" y="475"/>
      <point x="450" y="495"/>
      <point x="450" y="517" type="curve" smooth="yes"/>
      <point x="450" y="549"/>
      <point x="445" y="579"/>
      <point x="436" y="605" type="curve" smooth="yes"/>
      <point x="426" y="630"/>
      <point x="412" y="652"/>
      <point x="395" y="672" type="curve" smooth="yes"/>
      <point x="377" y="691"/>
      <point x="355" y="706"/>
      <point x="328" y="717" type="curve" smooth="yes"/>
      <point x="300" y="727"/>
      <point x="274" y="732"/>
      <point x="248" y="732" type="curve" smooth="yes"/>
      <point x="206" y="732"/>
      <point x="170" y="724"/>
      <point x="140" y="709" type="curve" smooth="yes"/>
      <point x="110" y="693"/>
      <point x="87" y="673"/>
      <point x="72" y="651" type="curve" smooth="yes"/>
      <point x="47" y="612"/>
      <point x="35" y="560"/>
      <point x="35" y="494" type="curve"/>
      <point x="163" y="494" type="line"/>
      <point x="163" y="545"/>
      <point x="170" y="581"/>
      <point x="185" y="601" type="curve" smooth="yes"/>
      <point x="198" y="618"/>
      <point x="218" y="627"/>
      <point x="245" y="627" type="curve" smooth="yes"/>
      <point x="257" y="627"/>
      <point x="269" y="623"/>
      <point x="279" y="617" type="curve" smooth="yes"/>
      <point x="288" y="610"/>
      <point x="296" y="601"/>
      <point x="304" y="591" type="curve" smooth="yes"/>
      <point x="310" y="580"/>
      <point x="315" y="567"/>
      <point x="319" y="553" type="curve" smooth="yes"/>
      <point x="322" y="538"/>
      <point x="324" y="526"/>
      <point x="324" y="517" type="curve" smooth="yes"/>
      <point x="324" y="490"/>
      <point x="319" y="463"/>
      <point x="309" y="437" type="curve" smooth="yes"/>
      <point x="296" y="399"/>
      <point x="257" y="339"/>
      <point x="193" y="259" type="curve" smooth="yes"/>
      <point x="128" y="178"/>
      <point x="76" y="120"/>
      <point x="36" y="85" type="curve"/>
      <point x="36" y="-16" type="line"/>
    </contour>
  </outline>
</glyph>
<glyph name="eight" format="2">
  <advance width="490"/>
  <unicode hex="0038"/>
  <outline>
    <contour>
      <point x="332" y="522" type="curve" smooth="yes"/>
      <point x="332" y="490"/>
      <point x="323" y="465"/>
      <point x="306" y="447" type="curve" smooth="yes"/>
      <point x="288" y="428"/>
      <point x="268" y="419"/>
      <point x="244" y="419" type="curve" smooth="yes"/>
      <point x="221" y="419"/>
      <point x="201" y="428"/>
      <point x="184" y="447" type="curve" smooth="yes"/>
      <point x="166" y="465"/>
      <point x="158" y="490"/>
      <point x="158" y="522" type="curve" smooth="yes"/>
      <point x="158" y="554"/>
      <point x="166" y="580"/>
      <point x="184" y="600" type="curve" smooth="yes"/>
      <point x="201" y="618"/>
      <point x="221" y="628"/>
      <point x="244" y="628" type="curve" smooth="yes"/>
      <point x="267" y="628"/>
      <point x="288" y="618"/>
      <point x="306" y="600" type="curve" smooth="yes"/>
      <point x="323" y="580"/>
      <point x="332" y="554"/>
    </contour>
    <contour>
      <point x="457" y="522" type="curve" smooth="yes"/>
      <point x="457" y="551"/>
      <point x="452" y="578"/>
      <point x="442" y="603" type="curve" smooth="yes"/>
      <point x="432" y="627"/>
      <point x="417" y="649"/>
      <point x="399" y="669" type="curve" smooth="yes"/>
      <point x="380" y="688"/>
      <point x="357" y="703"/>
      <point x="329" y="715" type="curve" smooth="yes"/>
      <point x="300" y="725"/>
      <point x="272" y="731"/>
      <point x="244" y="731" type="curve" smooth="yes"/>
      <point x="216" y="731"/>
      <point x="189" y="725"/>
      <point x="161" y="715" type="curve" smooth="yes"/>
      <point x="132" y="703"/>
      <point x="108" y="688"/>
      <point x="90" y="669" type="curve" smooth="yes"/>
      <point x="71" y="649"/>
      <point x="57" y="627"/>
      <point x="48" y="603" type="curve" smooth="yes"/>
      <point x="38" y="577"/>
      <point x="33" y="550"/>
      <point x="33" y="522" type="curve" smooth="yes"/>
      <point x="33" y="494"/>
      <point x="37" y="469"/>
      <point x="47" y="445" type="curve" smooth="yes"/>
      <point x="56" y="421"/>
      <point x="70" y="399"/>
      <point x="89" y="380" type="curve" smooth="yes"/>
      <point x="95" y="374"/>
      <point x="101" y="370"/>
      <point x="108" y="366" type="curve"/>
      <point x="98" y="360"/>
      <point x="90" y="354"/>
      <point x="82" y="346" type="curve" smooth="yes"/>
      <point x="62" y="325"/>
      <point x="47" y="302"/>
      <point x="37" y="277" type="curve" smooth="yes"/>
      <point x="26" y="251"/>
      <point x="21" y="223"/>
      <point x="21" y="191" type="curve" smooth="yes"/>
      <point x="21" y="161"/>
      <point x="25" y="133"/>
      <point x="34" y="106" type="curve" smooth="yes"/>
      <point x="42" y="78"/>
      <point x="57" y="53"/>
      <point x="77" y="31" type="curve" smooth="yes"/>
      <point x="98" y="9"/>
      <point x="124" y="-6"/>
      <point x="155" y="-17" type="curve" smooth="yes"/>
      <point x="185" y="-27"/>
      <point x="214" y="-32"/>
      <point x="244" y="-32" type="curve" smooth="yes"/>
      <point x="273" y="-32"/>
      <point x="303" y="-27"/>
      <point x="334" y="-17" type="curve" smooth="yes"/>
      <point x="364" y="-6"/>
      <point x="389" y="9"/>
      <point x="411" y="31" type="curve" smooth="yes"/>
      <point x="431" y="53"/>
      <point x="445" y="78"/>
      <point x="454" y="106" type="curve" smooth="yes"/>
      <point x="462" y="133"/>
      <point x="467" y="161"/>
      <point x="467" y="191" type="curve" smooth="yes"/>
      <point x="467" y="223"/>
      <point x="461" y="251"/>
      <point x="451" y="277" type="curve" smooth="yes"/>
      <point x="440" y="302"/>
      <point x="425" y="325"/>
      <point x="406" y="346" type="curve" smooth="yes"/>
      <point x="398" y="354"/>
      <point x="389" y="360"/>
      <point x="380" y="366" type="curve"/>
      <point x="386" y="370"/>
      <point x="392" y="374"/>
      <point x="398" y="380" type="curve" smooth="yes"/>
      <point x="418" y="398"/>
      <point x="433" y="420"/>
      <point x="443" y="445" type="curve" smooth="yes"/>
      <point x="452" y="469"/>
      <point x="457" y="494"/>
    </contour>
    <contour>
      <point x="244" y="75" type="curve" smooth="yes"/>
      <point x="218" y="75"/>
      <point x="195" y="85"/>
      <point x="176" y="107" type="curve" smooth="yes"/>
      <point x="156" y="128"/>
      <point x="147" y="156"/>
      <point x="147" y="191" type="curve" smooth="yes"/>
      <point x="147" y="227"/>
      <point x="157" y="257"/>
      <point x="177" y="279" type="curve" smooth="yes"/>
      <point x="196" y="301"/>
      <point x="218" y="312"/>
      <point x="244" y="312" type="curve" smooth="yes"/>
      <point x="269" y="312"/>
      <point x="292" y="301"/>
      <point x="312" y="279" type="curve" smooth="yes"/>
      <point x="331" y="257"/>
      <point x="341" y="227"/>
      <point x="341" y="191" type="curve" smooth="yes"/>
      <point x="341" y="156"/>
      <point x="331" y="128"/>
      <point x="312" y="107" type="curve" smooth="yes"/>
      <point x="292" y="85"/>
      <point x="270" y="75"/>
    </contour>
  </outline>
</glyph>
<glyph name="nine" format="2">
  <advance width="490"/>
  <unicode hex="0039"/>
  <outline>
    <contour>
      <point x="443" y="582" type="curve" smooth="yes"/>
      <point x="432" y="613"/>
      <point x="418" y="640"/>
      <point x="401" y="662" type="curve" smooth="yes"/>
      <point x="381" y="685"/>
      <point x="357" y="702"/>
      <point x="327" y="714" type="curve" smooth="yes"/>
      <point x="297" y="725"/>
      <point x="268" y="731"/>
      <point x="240" y="731" type="curve" smooth="yes"/>
      <point x="211" y="731"/>
      <point x="182" y="725"/>
      <point x="153" y="715" type="curve" smooth="yes"/>
      <point x="123" y="703"/>
      <point x="98" y="686"/>
      <point x="78" y="663" type="curve" smooth="yes"/>
      <point x="60" y="641"/>
      <point x="46" y="615"/>
      <point x="37" y="584" type="curve" smooth="yes"/>
      <point x="27" y="552"/>
      <point x="23" y="520"/>
      <point x="23" y="487" type="curve" smooth="yes"/>
      <point x="23" y="453"/>
      <point x="27" y="421"/>
      <point x="37" y="390" type="curve" smooth="yes"/>
      <point x="45" y="358"/>
      <point x="59" y="331"/>
      <point x="77" y="310" type="curve" smooth="yes"/>
      <point x="96" y="287"/>
      <point x="119" y="270"/>
      <point x="145" y="260" type="curve" smooth="yes"/>
      <point x="171" y="248"/>
      <point x="203" y="243"/>
      <point x="241" y="243" type="curve" smooth="yes"/>
      <point x="261" y="243"/>
      <point x="281" y="247"/>
      <point x="300" y="257" type="curve" smooth="yes"/>
      <point x="318" y="265"/>
      <point x="331" y="273"/>
      <point x="341" y="281" type="curve"/>
      <point x="341" y="264" type="line" smooth="yes"/>
      <point x="341" y="260"/>
      <point x="339" y="246"/>
      <point x="335" y="220" type="curve" smooth="yes"/>
      <point x="331" y="193"/>
      <point x="324" y="168"/>
      <point x="316" y="145" type="curve" smooth="yes"/>
      <point x="307" y="121"/>
      <point x="296" y="104"/>
      <point x="283" y="92" type="curve" smooth="yes"/>
      <point x="269" y="79"/>
      <point x="255" y="73"/>
      <point x="240" y="73" type="curve" smooth="yes"/>
      <point x="228" y="73"/>
      <point x="217" y="75"/>
      <point x="209" y="79" type="curve" smooth="yes"/>
      <point x="199" y="83"/>
      <point x="192" y="88"/>
      <point x="187" y="96" type="curve" smooth="yes"/>
      <point x="181" y="102"/>
      <point x="177" y="111"/>
      <point x="175" y="123" type="curve" smooth="yes"/>
      <point x="172" y="134"/>
      <point x="171" y="150"/>
      <point x="171" y="171" type="curve"/>
      <point x="35" y="171" type="line"/>
      <point x="35" y="137"/>
      <point x="39" y="108"/>
      <point x="48" y="86" type="curve" smooth="yes"/>
      <point x="56" y="63"/>
      <point x="68" y="43"/>
      <point x="84" y="26" type="curve" smooth="yes"/>
      <point x="101" y="9"/>
      <point x="123" y="-4"/>
      <point x="149" y="-15" type="curve" smooth="yes"/>
      <point x="175" y="-25"/>
      <point x="204" y="-31"/>
      <point x="238" y="-31" type="curve" smooth="yes"/>
      <point x="287" y="-31"/>
      <point x="327" y="-19"/>
      <point x="358" y="5" type="curve" smooth="yes"/>
      <point x="388" y="28"/>
      <point x="412" y="59"/>
      <point x="428" y="97" type="curve" smooth="yes"/>
      <point x="442" y="132"/>
      <point x="452" y="170"/>
      <point x="458" y="211" type="curve" smooth="yes"/>
      <point x="463" y="251"/>
      <point x="466" y="292"/>
      <point x="466" y="335" type="curve" smooth="yes"/>
      <point x="466" y="395"/>
      <point x="464" y="445"/>
      <point x="460" y="487" type="curve" smooth="yes"/>
      <point x="455" y="528"/>
      <point x="449" y="560"/>
    </contour>
    <contour>
      <point x="148" y="486" type="curve" smooth="yes"/>
      <point x="148" y="506"/>
      <point x="150" y="526"/>
      <point x="156" y="544" type="curve" smooth="yes"/>
      <point x="160" y="562"/>
      <point x="167" y="577"/>
      <point x="176" y="590" type="curve" smooth="yes"/>
      <point x="184" y="602"/>
      <point x="194" y="611"/>
      <point x="206" y="617" type="curve" smooth="yes"/>
      <point x="217" y="623"/>
      <point x="228" y="626"/>
      <point x="239" y="626" type="curve" smooth="yes"/>
      <point x="249" y="626"/>
      <point x="261" y="623"/>
      <point x="273" y="617" type="curve" smooth="yes"/>
      <point x="284" y="611"/>
      <point x="294" y="602"/>
      <point x="302" y="590" type="curve" smooth="yes"/>
      <point x="310" y="577"/>
      <point x="317" y="562"/>
      <point x="323" y="544" type="curve" smooth="yes"/>
      <point x="327" y="526"/>
      <point x="330" y="506"/>
      <point x="330" y="486" type="curve" smooth="yes"/>
      <point x="330" y="466"/>
      <point x="327" y="447"/>
      <point x="323" y="429" type="curve" smooth="yes"/>
      <point x="317" y="411"/>
      <point x="310" y="395"/>
      <point x="302" y="383" type="curve" smooth="yes"/>
      <point x="294" y="371"/>
      <point x="284" y="362"/>
      <point x="273" y="357" type="curve" smooth="yes"/>
      <point x="261" y="351"/>
      <point x="249" y="348"/>
      <point x="239" y="348" type="curve" smooth="yes"/>
      <point x="228" y="348"/>
      <point x="217" y="351"/>
      <point x="206" y="357" type="curve" smooth="yes"/>
      <point x="194" y="362"/>
      <point x="184" y="371"/>
      <point x="176" y="383" type="curve" smooth="yes"/>
      <point x="167" y="395"/>
      <point x="160" y="411"/>
      <point x="156" y="429" type="curve" smooth="yes"/>
      <point x="150" y="447"/>
      <point x="148" y="466"/>
    </contour>
  </outline>
</glyph>
<glyph name="colon" format="2">
  <advance width="362"/>
  <unicode hex="003A"/>
  <outline>
    <contour>
      <point x="254" y="50" type="line"/>
      <point x="254" y="201" type="line"/>
      <point x="108" y="201" type="line"/>
      <point x="108" y="50" type="line"/>
    </contour>
    <contour>
      <point x="254" y="445" type="line"/>
      <point x="254" y="596" type="line"/>
      <point x="108" y="596" type="line"/>
      <point x="108" y="445" type="line"/>
    </contour>
  </outline>
</glyph>
<glyph name="N" format="2">
  <advance width="579"/>
  <unicode hex="004E"/>
  <outline>
    <contour>
      <point x="535" y="-16" type="line"/>
      <point x="535" y="729" type="line"/>
      <point x="414" y="729" type="line"/>
      <point x="414" y="218" type="line"/>
      <point x="173" y="729" type="line"/>
      <point x="44" y="729" type="line"/>
      <point x="44" y="-16" type="line"/>
      <point x="165" y="-16" type="line"/>
      <point x="165" y="493" type="line"/>
      <point x="405" y="-16" type="line"/>
    </contour>
  </outline>
</glyph>
<glyph name="P" format="2">
  <advance width="512"/>
  <unicode hex="0050"/>
  <outline>
    <contour>
      <point x="503" y="500" type="curve" smooth="yes"/>
      <point x="503" y="542"/>
      <point x="495" y="578"/>
      <point x="480" y="609" type="curve" smooth="yes"/>
      <point x="464" y="639"/>
      <point x="443" y="662"/>
      <point x="417" y="680" type="curve" smooth="yes"/>
      <point x="393" y="695"/>
      <point x="366" y="707"/>
      <point x="337" y="716" type="curve" smooth="yes"/>
      <point x="307" y="724"/>
      <point x="275" y="729"/>
      <point x="243" y="729" type="curve" smooth="yes"/>
      <point x="44" y="729" type="line"/>
      <point x="44" y="-16" type="line"/>
      <point x="170" y="-16" type="line"/>
      <point x="170" y="273" type="line"/>
      <point x="182" y="273" type="line"/>
      <point x="236" y="273" type="line" smooth="yes"/>
      <point x="273" y="273"/>
      <point x="307" y="277"/>
      <point x="338" y="285" type="curve" smooth="yes"/>
      <point x="368" y="293"/>
      <point x="395" y="305"/>
      <point x="421" y="323" type="curve" smooth="yes"/>
      <point x="445" y="341"/>
      <point x="464" y="365"/>
      <point x="480" y="396" type="curve" smooth="yes"/>
      <point x="495" y="426"/>
      <point x="503" y="461"/>
    </contour>
    <contour>
      <point x="170" y="389" type="line"/>
      <point x="170" y="617" type="line"/>
      <point x="246" y="617" type="line" smooth="yes"/>
      <point x="260" y="617"/>
      <point x="274" y="615"/>
      <point x="290" y="612" type="curve" smooth="yes"/>
      <point x="305" y="608"/>
      <point x="319" y="601"/>
      <point x="332" y="592" type="curve" smooth="yes"/>
      <point x="344" y="583"/>
      <point x="354" y="572"/>
      <point x="364" y="558" type="curve" smooth="yes"/>
      <point x="372" y="543"/>
      <point x="377" y="524"/>
      <point x="377" y="500" type="curve" smooth="yes"/>
      <point x="377" y="480"/>
      <point x="372" y="463"/>
      <point x="364" y="448" type="curve" smooth="yes"/>
      <point x="355" y="432"/>
      <point x="344" y="419"/>
      <point x="332" y="409" type="curve" smooth="yes"/>
      <point x="321" y="401"/>
      <point x="308" y="395"/>
      <point x="293" y="393" type="curve" smooth="yes"/>
      <point x="277" y="390"/>
      <point x="257" y="389"/>
      <point x="233" y="389" type="curve" smooth="yes"/>
      <point x="182" y="389" type="line"/>
    </contour>
  </outline>
</glyph>
<glyph name="R" format="2">
  <advance width="522"/>
  <unicode hex="0052"/>
  <outline>
    <contour>
      <point x="503" y="506" type="curve" smooth="yes"/>
      <point x="503" y="548"/>
      <point x="495" y="583"/>
      <point x="480" y="611" type="curve" smooth="yes"/>
      <point x="464" y="639"/>
      <point x="444" y="662"/>
      <point x="418" y="680" type="curve" smooth="yes"/>
      <point x="394" y="695"/>
      <point x="367" y="707"/>
      <point x="337" y="716" type="curve" smooth="yes"/>
      <point x="307" y="724"/>
      <point x="275" y="729"/>
      <point x="243" y="729" type="curve" smooth="yes"/>
      <point x="44" y="729" type="line"/>
      <point x="44" y="-16" type="line"/>
      <point x="170" y="-16" type="line"/>
      <point x="170" y="617" type="line"/>
      <point x="246" y="617" type="line" smooth="yes"/>
      <point x="260" y="617"/>
      <point x="275" y="615"/>
      <point x="291" y="611" type="curve" smooth="yes"/>
      <point x="306" y="607"/>
      <point x="320" y="600"/>
      <point x="334" y="592" type="curve" smooth="yes"/>
      <point x="345" y="584"/>
      <point x="355" y="573"/>
      <point x="364" y="559" type="curve" smooth="yes"/>
      <point x="372" y="545"/>
      <point x="377" y="527"/>
      <point x="377" y="506" type="curve" smooth="yes"/>
      <point x="377" y="487"/>
      <point x="372" y="470"/>
      <point x="364" y="456" type="curve" smooth="yes"/>
      <point x="355" y="441"/>
      <point x="345" y="430"/>
      <point x="333" y="422" type="curve" smooth="yes"/>
      <point x="321" y="412"/>
      <point x="308" y="406"/>
      <point x="293" y="404" type="curve" smooth="yes"/>
      <point x="277" y="400"/>
      <point x="257" y="399"/>
      <point x="233" y="399" type="curve" smooth="yes"/>
      <point x="182" y="399" type="line"/>
      <point x="182" y="283" type="line"/>
      <point x="225" y="283" type="line" smooth="yes"/>
      <point x="265" y="283"/>
      <point x="299" y="263"/>
      <point x="326" y="225" type="curve" smooth="yes"/>
      <point x="351" y="188"/>
      <point x="373" y="108"/>
      <point x="392" y="-16" type="curve"/>
      <point x="523" y="-16" type="line"/>
      <point x="507" y="82"/>
      <point x="488" y="163"/>
      <point x="465" y="227" type="curve" smooth="yes"/>
      <point x="446" y="279"/>
      <point x="422" y="312"/>
      <point x="393" y="328" type="curve"/>
      <point x="396" y="328"/>
      <point x="405" y="333"/>
      <point x="419" y="343" type="curve" smooth="yes"/>
      <point x="444" y="359"/>
      <point x="464" y="382"/>
      <point x="480" y="411" type="curve" smooth="yes"/>
      <point x="495" y="439"/>
      <point x="503" y="471"/>
    </contour>
  </outline>
</glyph>
<glyph name="Y" format="2">
  <advance width="540"/>
  <unicode hex="0059"/>
  <outline>
    <contour>
      <point x="269" y="452" type="line"/>
      <point x="125" y="729" type="line"/>
      <point x="-12" y="729" type="line"/>
      <point x="207" y="321" type="line"/>
      <point x="207" y="-16" type="line"/>
      <point x="333" y="-16" type="line"/>
      <point x="333" y="321" type="line"/>
      <point x="552" y="729" type="line"/>
      <point x="414" y="729" type="line"/>
    </contour>
  </outline>
</glyph>
<glyph name="backslash" format="2">
  <advance width="890"/>
  <unicode hex="005C"/>
  <outline>
    <contour>
      <point x="864" y="335" type="line"/>
      <point x="864" y="426" type="line"/>
      <point x="749" y="426" type="line"/>
      <point x="799" y="704" type="line"/>
      <point x="683" y="704" type="line"/>
      <point x="635" y="426" type="line"/>
      <point x="560" y="426" type="line"/>
      <point x="503" y="704" type="line"/>
      <point x="392" y="704" type="line"/>
      <point x="335" y="426" type="line"/>
      <point x="260" y="426" type="line"/>
      <point x="212" y="704" type="line"/>
      <point x="96" y="704" type="line"/>
      <point x="146" y="426" type="line"/>
      <point x="32" y="426" type="line"/>
      <point x="32" y="335" type="line"/>
      <point x="163" y="335" type="line"/>
      <point x="226" y="-16" type="line"/>
      <point x="342" y="-16" type="line"/>
      <point x="415" y="335" type="line"/>
      <point x="480" y="335" type="line"/>
      <point x="554" y="-16" type="line"/>
      <point x="669" y="-16" type="line"/>
      <point x="732" y="335" type="line"/>
    </contour>
    <contour>
      <point x="620" y="335" type="line"/>
      <point x="601" y="227" type="line"/>
      <point x="579" y="335" type="line"/>
    </contour>
    <contour>
      <point x="316" y="335" type="line"/>
      <point x="294" y="227" type="line"/>
      <point x="275" y="335" type="line"/>
    </contour>
    <contour>
      <point x="434" y="426" type="line"/>
      <point x="447" y="490" type="line"/>
      <point x="461" y="426" type="line"/>
    </contour>
  </outline>
</glyph>
<glyph name="a" format="2">
  <advance width="472"/>
  <unicode hex="0061"/>
  <outline>
    <contour>
      <point x="434" y="-16" type="line"/>
      <point x="434" y="346" type="line" smooth="yes"/>
      <point x="434" y="396"/>
      <point x="417" y="440"/>
      <point x="383" y="477" type="curve" smooth="yes"/>
      <point x="348" y="513"/>
      <point x="297" y="532"/>
      <point x="231" y="532" type="curve" smooth="yes"/>
      <point x="199" y="532"/>
      <point x="169" y="527"/>
      <point x="142" y="517" type="curve" smooth="yes"/>
      <point x="114" y="506"/>
      <point x="92" y="493"/>
      <point x="76" y="478" type="curve" smooth="yes"/>
      <point x="58" y="463"/>
      <point x="46" y="446"/>
      <point x="38" y="428" type="curve" smooth="yes"/>
      <point x="30" y="408"/>
      <point x="26" y="381"/>
      <point x="26" y="347" type="curve"/>
      <point x="160" y="347" type="line"/>
      <point x="160" y="378"/>
      <point x="167" y="399"/>
      <point x="182" y="411" type="curve" smooth="yes"/>
      <point x="196" y="421"/>
      <point x="212" y="427"/>
      <point x="231" y="427" type="curve" smooth="yes"/>
      <point x="246" y="427"/>
      <point x="259" y="424"/>
      <point x="270" y="419" type="curve" smooth="yes"/>
      <point x="280" y="413"/>
      <point x="289" y="405"/>
      <point x="295" y="396" type="curve" smooth="yes"/>
      <point x="300" y="387"/>
      <point x="304" y="377"/>
      <point x="307" y="366" type="curve" smooth="yes"/>
      <point x="309" y="354"/>
      <point x="310" y="346"/>
      <point x="310" y="342" type="curve" smooth="yes"/>
      <point x="310" y="316" type="line"/>
      <point x="249" y="316" type="line" smooth="yes"/>
      <point x="235" y="316"/>
      <point x="217" y="314"/>
      <point x="194" y="311" type="curve" smooth="yes"/>
      <point x="170" y="307"/>
      <point x="149" y="301"/>
      <point x="129" y="293" type="curve" smooth="yes"/>
      <point x="97" y="280"/>
      <point x="70" y="259"/>
      <point x="48" y="230" type="curve" smooth="yes"/>
      <point x="25" y="200"/>
      <point x="14" y="165"/>
      <point x="14" y="123" type="curve" smooth="yes"/>
      <point x="14" y="100"/>
      <point x="18" y="80"/>
      <point x="26" y="62" type="curve" smooth="yes"/>
      <point x="33" y="44"/>
      <point x="44" y="28"/>
      <point x="59" y="14" type="curve" smooth="yes"/>
      <point x="72" y="1"/>
      <point x="88" y="-8"/>
      <point x="108" y="-16" type="curve" smooth="yes"/>
      <point x="127" y="-23"/>
      <point x="144" y="-27"/>
      <point x="158" y="-27" type="curve" smooth="yes"/>
      <point x="226" y="-27"/>
      <point x="277" y="-10"/>
      <point x="310" y="24" type="curve"/>
      <point x="310" y="-16" type="line"/>
    </contour>
    <contour>
      <point x="310" y="183" type="line" smooth="yes"/>
      <point x="310" y="167"/>
      <point x="307" y="155"/>
      <point x="302" y="146" type="curve" smooth="yes"/>
      <point x="290" y="126"/>
      <point x="274" y="109"/>
      <point x="254" y="95" type="curve" smooth="yes"/>
      <point x="244" y="88"/>
      <point x="233" y="84"/>
      <point x="221" y="82" type="curve" smooth="yes"/>
      <point x="208" y="79"/>
      <point x="199" y="78"/>
      <point x="193" y="78" type="curve" smooth="yes"/>
      <point x="178" y="78"/>
      <point x="166" y="82"/>
      <point x="156" y="90" type="curve" smooth="yes"/>
      <point x="145" y="98"/>
      <point x="140" y="112"/>
      <point x="140" y="133" type="curve" smooth="yes"/>
      <point x="140" y="153"/>
      <point x="149" y="170"/>
      <point x="167" y="185" type="curve" smooth="yes"/>
      <point x="183" y="197"/>
      <point x="201" y="204"/>
      <point x="221" y="208" type="curve" smooth="yes"/>
      <point x="247" y="212"/>
      <point x="267" y="215"/>
      <point x="279" y="216" type="curve" smooth="yes"/>
      <point x="290" y="216"/>
      <point x="300" y="216"/>
      <point x="310" y="216" type="curve"/>
    </contour>
  </outline>
</glyph>
<glyph name="c" format="2">
  <advance width="472"/>
  <unicode hex="0063"/>
  <outline>
    <contour>
      <point x="454" y="322" type="line"/>
      <point x="454" y="366"/>
      <point x="448" y="399"/>
      <point x="438" y="423" type="curve" smooth="yes"/>
      <point x="426" y="445"/>
      <point x="412" y="464"/>
      <point x="394" y="480" type="curve" smooth="yes"/>
      <point x="376" y="496"/>
      <point x="355" y="508"/>
      <point x="331" y="518" type="curve" smooth="yes"/>
      <point x="307" y="527"/>
      <point x="280" y="532"/>
      <point x="252" y="532" type="curve" smooth="yes"/>
      <point x="212" y="532"/>
      <point x="178" y="524"/>
      <point x="148" y="510" type="curve" smooth="yes"/>
      <point x="117" y="495"/>
      <point x="92" y="476"/>
      <point x="73" y="452" type="curve" smooth="yes"/>
      <point x="53" y="428"/>
      <point x="39" y="401"/>
      <point x="29" y="369" type="curve" smooth="yes"/>
      <point x="19" y="336"/>
      <point x="14" y="300"/>
      <point x="14" y="262" type="curve" smooth="yes"/>
      <point x="14" y="215"/>
      <point x="21" y="174"/>
      <point x="35" y="139" type="curve" smooth="yes"/>
      <point x="48" y="103"/>
      <point x="65" y="73"/>
      <point x="85" y="49" type="curve" smooth="yes"/>
      <point x="102" y="29"/>
      <point x="125" y="13"/>
      <point x="154" y="-1" type="curve" smooth="yes"/>
      <point x="182" y="-15"/>
      <point x="210" y="-23"/>
      <point x="239" y="-27" type="curve" smooth="yes"/>
      <point x="272" y="-30"/>
      <point x="305" y="-29"/>
      <point x="338" y="-23" type="curve" smooth="yes"/>
      <point x="370" y="-17"/>
      <point x="404" y="-3"/>
      <point x="440" y="18" type="curve"/>
      <point x="440" y="126" type="line"/>
      <point x="401" y="104"/>
      <point x="369" y="91"/>
      <point x="345" y="87" type="curve" smooth="yes"/>
      <point x="320" y="81"/>
      <point x="302" y="79"/>
      <point x="291" y="79" type="curve" smooth="yes"/>
      <point x="274" y="79"/>
      <point x="260" y="80"/>
      <point x="248" y="84" type="curve" smooth="yes"/>
      <point x="236" y="87"/>
      <point x="227" y="90"/>
      <point x="222" y="94" type="curve" smooth="yes"/>
      <point x="204" y="104"/>
      <point x="190" y="116"/>
      <point x="180" y="132" type="curve" smooth="yes"/>
      <point x="169" y="146"/>
      <point x="161" y="162"/>
      <point x="156" y="179" type="curve" smooth="yes"/>
      <point x="151" y="192"/>
      <point x="148" y="206"/>
      <point x="146" y="221" type="curve" smooth="yes"/>
      <point x="143" y="235"/>
      <point x="142" y="248"/>
      <point x="142" y="261" type="curve" smooth="yes"/>
      <point x="142" y="315"/>
      <point x="153" y="356"/>
      <point x="175" y="385" type="curve" smooth="yes"/>
      <point x="196" y="413"/>
      <point x="221" y="427"/>
      <point x="249" y="427" type="curve" smooth="yes"/>
      <point x="273" y="427"/>
      <point x="292" y="418"/>
      <point x="306" y="401" type="curve" smooth="yes"/>
      <point x="318" y="383"/>
      <point x="325" y="357"/>
      <point x="325" y="322" type="curve"/>
    </contour>
  </outline>
</glyph>
<glyph name="e" format="2">
  <advance width="472"/>
  <unicode hex="0065"/>
  <outline>
    <contour>
      <point x="144" y="311" type="line"/>
      <point x="148" y="341"/>
      <point x="158" y="365"/>
      <point x="174" y="385" type="curve" smooth="yes"/>
      <point x="196" y="413"/>
      <point x="221" y="427"/>
      <point x="249" y="427" type="curve" smooth="yes"/>
      <point x="263" y="427"/>
      <point x="275" y="423"/>
      <point x="287" y="417" type="curve" smooth="yes"/>
      <point x="298" y="409"/>
      <point x="307" y="400"/>
      <point x="313" y="390" type="curve" smooth="yes"/>
      <point x="324" y="368"/>
      <point x="330" y="341"/>
      <point x="330" y="311" type="curve"/>
    </contour>
    <contour>
      <point x="146" y="206" type="curve"/>
      <point x="454" y="206" type="line"/>
      <point x="454" y="266" type="line" smooth="yes"/>
      <point x="454" y="354"/>
      <point x="439" y="417"/>
      <point x="410" y="456" type="curve" smooth="yes"/>
      <point x="394" y="478"/>
      <point x="371" y="496"/>
      <point x="343" y="511" type="curve" smooth="yes"/>
      <point x="314" y="525"/>
      <point x="283" y="532"/>
      <point x="250" y="532" type="curve" smooth="yes"/>
      <point x="210" y="532"/>
      <point x="175" y="524"/>
      <point x="146" y="510" type="curve" smooth="yes"/>
      <point x="116" y="494"/>
      <point x="92" y="475"/>
      <point x="73" y="452" type="curve" smooth="yes"/>
      <point x="53" y="428"/>
      <point x="39" y="401"/>
      <point x="29" y="369" type="curve" smooth="yes"/>
      <point x="19" y="336"/>
      <point x="14" y="300"/>
      <point x="14" y="262" type="curve" smooth="yes"/>
      <point x="14" y="215"/>
      <point x="21" y="174"/>
      <point x="35" y="139" type="curve" smooth="yes"/>
      <point x="48" y="103"/>
      <point x="65" y="73"/>
      <point x="85" y="49" type="curve" smooth="yes"/>
      <point x="102" y="29"/>
      <point x="125" y="13"/>
      <point x="154" y="-1" type="curve" smooth="yes"/>
      <point x="182" y="-15"/>
      <point x="210" y="-23"/>
      <point x="239" y="-27" type="curve" smooth="yes"/>
      <point x="272" y="-30"/>
      <point x="305" y="-29"/>
      <point x="338" y="-23" type="curve" smooth="yes"/>
      <point x="370" y="-17"/>
      <point x="404" y="-3"/>
      <point x="440" y="18" type="curve"/>
      <point x="440" y="127" type="line"/>
      <point x="410" y="109"/>
      <point x="382" y="96"/>
      <point x="358" y="90" type="curve" smooth="yes"/>
      <point x="332" y="82"/>
      <point x="310" y="79"/>
      <point x="291" y="79" type="curve" smooth="yes"/>
      <point x="274" y="79"/>
      <point x="260" y="80"/>
      <point x="248" y="84" type="curve" smooth="yes"/>
      <point x="236" y="87"/>
      <point x="227" y="90"/>
      <point x="222" y="94" type="curve" smooth="yes"/>
      <point x="204" y="104"/>
      <point x="190" y="117"/>
      <point x="179" y="133" type="curve" smooth="yes"/>
      <point x="167" y="147"/>
      <point x="159" y="162"/>
      <point x="154" y="178" type="curve" smooth="yes"/>
      <point x="150" y="187"/>
      <point x="148" y="196"/>
    </contour>
  </outline>
</glyph>
<glyph name="g" format="2">
  <advance width="500"/>
  <unicode hex="0067"/>
  <outline>
    <contour>
      <point x="139" y="261" type="curve" smooth="yes"/>
      <point x="139" y="285"/>
      <point x="142" y="307"/>
      <point x="148" y="327" type="curve" smooth="yes"/>
      <point x="153" y="345"/>
      <point x="161" y="363"/>
      <point x="172" y="381" type="curve" smooth="yes"/>
      <point x="182" y="395"/>
      <point x="193" y="407"/>
      <point x="205" y="415" type="curve" smooth="yes"/>
      <point x="216" y="422"/>
      <point x="227" y="426"/>
      <point x="238" y="426" type="curve" smooth="yes"/>
      <point x="248" y="426"/>
      <point x="259" y="422"/>
      <point x="271" y="414" type="curve" smooth="yes"/>
      <point x="283" y="405"/>
      <point x="294" y="394"/>
      <point x="304" y="380" type="curve" smooth="yes"/>
      <point x="314" y="363"/>
      <point x="323" y="345"/>
      <point x="329" y="327" type="curve" smooth="yes"/>
      <point x="334" y="307"/>
      <point x="337" y="285"/>
      <point x="337" y="261" type="curve" smooth="yes"/>
      <point x="337" y="237"/>
      <point x="334" y="215"/>
      <point x="328" y="196" type="curve" smooth="yes"/>
      <point x="322" y="176"/>
      <point x="314" y="158"/>
      <point x="304" y="143" type="curve" smooth="yes"/>
      <point x="294" y="128"/>
      <point x="283" y="117"/>
      <point x="272" y="110" type="curve" smooth="yes"/>
      <point x="260" y="102"/>
      <point x="248" y="98"/>
      <point x="238" y="98" type="curve" smooth="yes"/>
      <point x="227" y="98"/>
      <point x="216" y="101"/>
      <point x="205" y="109" type="curve" smooth="yes"/>
      <point x="193" y="115"/>
      <point x="182" y="127"/>
      <point x="172" y="143" type="curve" smooth="yes"/>
      <point x="162" y="159"/>
      <point x="154" y="176"/>
      <point x="148" y="196" type="curve" smooth="yes"/>
      <point x="142" y="215"/>
      <point x="139" y="237"/>
    </contour>
    <contour>
      <point x="461" y="68" type="curve" smooth="yes"/>
      <point x="461" y="520" type="line"/>
      <point x="338" y="520" type="line"/>
      <point x="338" y="482" type="line"/>
      <point x="311" y="515"/>
      <point x="276" y="532"/>
      <point x="233" y="532" type="curve" smooth="yes"/>
      <point x="197" y="532"/>
      <point x="164" y="523"/>
      <point x="135" y="507" type="curve" smooth="yes"/>
      <point x="105" y="489"/>
      <point x="82" y="468"/>
      <point x="65" y="443" type="curve" smooth="yes"/>
      <point x="47" y="417"/>
      <point x="34" y="390"/>
      <point x="26" y="362" type="curve" smooth="yes"/>
      <point x="17" y="333"/>
      <point x="13" y="301"/>
      <point x="13" y="266" type="curve" smooth="yes"/>
      <point x="13" y="222"/>
      <point x="18" y="184"/>
      <point x="30" y="153" type="curve" smooth="yes"/>
      <point x="40" y="121"/>
      <point x="54" y="93"/>
      <point x="71" y="71" type="curve" smooth="yes"/>
      <point x="89" y="45"/>
      <point x="112" y="26"/>
      <point x="140" y="14" type="curve" smooth="yes"/>
      <point x="167" y="1"/>
      <point x="196" y="-5"/>
      <point x="228" y="-5" type="curve" smooth="yes"/>
      <point x="256" y="-5"/>
      <point x="280" y="0"/>
      <point x="300" y="12" type="curve" smooth="yes"/>
      <point x="318" y="22"/>
      <point x="331" y="31"/>
      <point x="337" y="41" type="curve"/>
      <point x="337" y="31"/>
      <point x="336" y="23"/>
      <point x="336" y="17" type="curve" smooth="yes"/>
      <point x="333" y="-11"/>
      <point x="322" y="-31"/>
      <point x="302" y="-43" type="curve" smooth="yes"/>
      <point x="281" y="-53"/>
      <point x="254" y="-59"/>
      <point x="220" y="-59" type="curve" smooth="yes"/>
      <point x="200" y="-59"/>
      <point x="176" y="-56"/>
      <point x="147" y="-51" type="curve" smooth="yes"/>
      <point x="117" y="-45"/>
      <point x="84" y="-31"/>
      <point x="48" y="-10" type="curve"/>
      <point x="48" y="-136" type="line"/>
      <point x="73" y="-148"/>
      <point x="101" y="-157"/>
      <point x="132" y="-162" type="curve" smooth="yes"/>
      <point x="162" y="-166"/>
      <point x="190" y="-168"/>
      <point x="214" y="-168" type="curve" smooth="yes"/>
      <point x="291" y="-168"/>
      <point x="352" y="-151"/>
      <point x="396" y="-117" type="curve" smooth="yes"/>
      <point x="437" y="-85"/>
      <point x="459" y="-23"/>
    </contour>
  </outline>
</glyph>
<glyph name="h" format="2">
  <advance width="500"/>
  <unicode hex="0068"/>
  <outline>
    <contour>
      <point x="461" y="-16" type="line"/>
      <point x="461" y="338" type="line" smooth="yes"/>
      <point x="461" y="401"/>
      <point x="444" y="449"/>
      <point x="411" y="483" type="curve" smooth="yes"/>
      <point x="378" y="515"/>
      <point x="332" y="532"/>
      <point x="272" y="532" type="curve" smooth="yes"/>
      <point x="250" y="532"/>
      <point x="229" y="526"/>
      <point x="209" y="515" type="curve" smooth="yes"/>
      <point x="188" y="503"/>
      <point x="172" y="490"/>
      <point x="162" y="476" type="curve"/>
      <point x="162" y="729" type="line"/>
      <point x="39" y="729" type="line"/>
      <point x="39" y="-16" type="line"/>
      <point x="162" y="-16" type="line"/>
      <point x="162" y="217" type="line" smooth="yes"/>
      <point x="162" y="231"/>
      <point x="162" y="244"/>
      <point x="164" y="256" type="curve" smooth="yes"/>
      <point x="164" y="266"/>
      <point x="166" y="277"/>
      <point x="169" y="289" type="curve" smooth="yes"/>
      <point x="178" y="334"/>
      <point x="192" y="368"/>
      <point x="211" y="390" type="curve" smooth="yes"/>
      <point x="229" y="411"/>
      <point x="248" y="422"/>
      <point x="268" y="422" type="curve" smooth="yes"/>
      <point x="290" y="422"/>
      <point x="305" y="415"/>
      <point x="315" y="402" type="curve" smooth="yes"/>
      <point x="329" y="380"/>
      <point x="337" y="352"/>
      <point x="337" y="316" type="curve" smooth="yes"/>
      <point x="337" y="-16" type="line"/>
    </contour>
  </outline>
</glyph>
<glyph name="l" format="2">
  <advance width="212"/>
  <unicode hex="006C"/>
  <outline>
    <contour>
      <point x="169" y="-16" type="line"/>
      <point x="169" y="729" type="line"/>
      <point x="43" y="729" type="line"/>
      <point x="43" y="-16" type="line"/>
    </contour>
  </outline>
</glyph>
<glyph name="m" format="2">
  <advance width="716"/>
  <unicode hex="006D"/>
  <outline>
    <contour>
      <point x="677" y="-16" type="line"/>
      <point x="677" y="333" type="line" smooth="yes"/>
      <point x="677" y="399"/>
      <point x="661" y="449"/>
      <point x="631" y="483" type="curve" smooth="yes"/>
      <point x="600" y="515"/>
      <point x="561" y="532"/>
      <point x="513" y="532" type="curve" smooth="yes"/>
      <point x="468" y="532"/>
      <point x="430" y="512"/>
      <point x="400" y="473" type="curve" smooth="yes"/>
      <point x="394" y="465"/>
      <point x="390" y="458"/>
      <point x="386" y="452" type="curve"/>
      <point x="379" y="465"/>
      <point x="370" y="478"/>
      <point x="360" y="490" type="curve" smooth="yes"/>
      <point x="334" y="518"/>
      <point x="297" y="532"/>
      <point x="251" y="532" type="curve" smooth="yes"/>
      <point x="236" y="532"/>
      <point x="221" y="527"/>
      <point x="205" y="519" type="curve" smooth="yes"/>
      <point x="189" y="510"/>
      <point x="174" y="497"/>
      <point x="160" y="480" type="curve"/>
      <point x="160" y="520" type="line"/>
      <point x="39" y="520" type="line"/>
      <point x="39" y="-16" type="line"/>
      <point x="160" y="-16" type="line"/>
      <point x="160" y="217" type="line" smooth="yes"/>
      <point x="160" y="243"/>
      <point x="163" y="268"/>
      <point x="167" y="292" type="curve" smooth="yes"/>
      <point x="170" y="314"/>
      <point x="176" y="336"/>
      <point x="184" y="357" type="curve" smooth="yes"/>
      <point x="192" y="378"/>
      <point x="201" y="393"/>
      <point x="212" y="403" type="curve" smooth="yes"/>
      <point x="222" y="411"/>
      <point x="232" y="416"/>
      <point x="244" y="416" type="curve" smooth="yes"/>
      <point x="255" y="416"/>
      <point x="264" y="414"/>
      <point x="271" y="410" type="curve" smooth="yes"/>
      <point x="277" y="405"/>
      <point x="282" y="397"/>
      <point x="287" y="386" type="curve" smooth="yes"/>
      <point x="291" y="374"/>
      <point x="295" y="359"/>
      <point x="297" y="341" type="curve" smooth="yes"/>
      <point x="298" y="322"/>
      <point x="299" y="303"/>
      <point x="299" y="283" type="curve" smooth="yes"/>
      <point x="299" y="-16" type="line"/>
      <point x="417" y="-16" type="line"/>
      <point x="417" y="213" type="line" smooth="yes"/>
      <point x="417" y="227"/>
      <point x="417" y="239"/>
      <point x="418" y="251" type="curve" smooth="yes"/>
      <point x="418" y="261"/>
      <point x="420" y="273"/>
      <point x="422" y="287" type="curve" smooth="yes"/>
      <point x="428" y="329"/>
      <point x="439" y="362"/>
      <point x="455" y="384" type="curve" smooth="yes"/>
      <point x="471" y="405"/>
      <point x="487" y="416"/>
      <point x="504" y="416" type="curve" smooth="yes"/>
      <point x="513" y="416"/>
      <point x="521" y="414"/>
      <point x="528" y="410" type="curve" smooth="yes"/>
      <point x="534" y="405"/>
      <point x="540" y="397"/>
      <point x="545" y="386" type="curve" smooth="yes"/>
      <point x="549" y="376"/>
      <point x="552" y="361"/>
      <point x="554" y="342" type="curve" smooth="yes"/>
      <point x="555" y="322"/>
      <point x="556" y="303"/>
      <point x="556" y="283" type="curve" smooth="yes"/>
      <point x="556" y="-16" type="line"/>
    </contour>
  </outline>
</glyph>
<glyph name="q" format="2">
  <advance width="500"/>
  <unicode hex="0071"/>
  <outline>
    <contour>
      <point x="14" y="258" type="curve" smooth="yes"/>
      <point x="14" y="214"/>
      <point x="19" y="174"/>
      <point x="30" y="140" type="curve" smooth="yes"/>
      <point x="40" y="105"/>
      <point x="54" y="77"/>
      <point x="72" y="55" type="curve" smooth="yes"/>
      <point x="90" y="29"/>
      <point x="113" y="10"/>
      <point x="141" y="-3" type="curve" smooth="yes"/>
      <point x="168" y="-16"/>
      <point x="197" y="-23"/>
      <point x="229" y="-23" type="curve" smooth="yes"/>
      <point x="271" y="-23"/>
      <point x="307" y="-7"/>
      <point x="338" y="24" type="curve"/>
      <point x="338" y="-168" type="line"/>
      <point x="461" y="-168" type="line"/>
      <point x="461" y="520" type="line"/>
      <point x="338" y="520" type="line"/>
      <point x="338" y="479" type="line"/>
      <point x="307" y="514"/>
      <point x="272" y="532"/>
      <point x="233" y="532" type="curve" smooth="yes"/>
      <point x="197" y="532"/>
      <point x="164" y="523"/>
      <point x="136" y="507" type="curve" smooth="yes"/>
      <point x="106" y="489"/>
      <point x="83" y="468"/>
      <point x="65" y="443" type="curve" smooth="yes"/>
      <point x="48" y="417"/>
      <point x="35" y="389"/>
      <point x="27" y="358" type="curve" smooth="yes"/>
      <point x="18" y="326"/>
      <point x="14" y="293"/>
    </contour>
    <contour>
      <point x="140" y="253" type="curve" smooth="yes"/>
      <point x="140" y="278"/>
      <point x="143" y="302"/>
      <point x="149" y="324" type="curve" smooth="yes"/>
      <point x="155" y="345"/>
      <point x="163" y="364"/>
      <point x="173" y="381" type="curve" smooth="yes"/>
      <point x="183" y="395"/>
      <point x="194" y="407"/>
      <point x="206" y="415" type="curve" smooth="yes"/>
      <point x="217" y="422"/>
      <point x="228" y="426"/>
      <point x="239" y="426" type="curve" smooth="yes"/>
      <point x="249" y="426"/>
      <point x="260" y="422"/>
      <point x="272" y="414" type="curve" smooth="yes"/>
      <point x="284" y="405"/>
      <point x="294" y="394"/>
      <point x="304" y="380" type="curve" smooth="yes"/>
      <point x="314" y="363"/>
      <point x="322" y="344"/>
      <point x="328" y="323" type="curve" smooth="yes"/>
      <point x="334" y="301"/>
      <point x="337" y="278"/>
      <point x="337" y="253" type="curve" smooth="yes"/>
      <point x="337" y="228"/>
      <point x="334" y="205"/>
      <point x="328" y="184" type="curve" smooth="yes"/>
      <point x="322" y="162"/>
      <point x="314" y="143"/>
      <point x="304" y="127" type="curve" smooth="yes"/>
      <point x="294" y="111"/>
      <point x="284" y="100"/>
      <point x="273" y="93" type="curve" smooth="yes"/>
      <point x="261" y="85"/>
      <point x="249" y="82"/>
      <point x="239" y="82" type="curve" smooth="yes"/>
      <point x="228" y="82"/>
      <point x="217" y="85"/>
      <point x="205" y="93" type="curve" smooth="yes"/>
      <point x="193" y="99"/>
      <point x="182" y="110"/>
      <point x="173" y="126" type="curve" smooth="yes"/>
      <point x="163" y="142"/>
      <point x="155" y="162"/>
      <point x="149" y="184" type="curve" smooth="yes"/>
      <point x="143" y="205"/>
      <point x="140" y="228"/>
    </contour>
  </outline>
</glyph>
<glyph name="s" format="2">
  <advance width="394"/>
  <unicode hex="0073"/>
  <outline>
    <contour>
      <point x="386" y="134" type="curve" smooth="yes"/>
      <point x="386" y="170"/>
      <point x="376" y="200"/>
      <point x="358" y="224" type="curve" smooth="yes"/>
      <point x="339" y="247"/>
      <point x="318" y="265"/>
      <point x="294" y="278" type="curve" smooth="yes"/>
      <point x="272" y="288"/>
      <point x="248" y="299"/>
      <point x="221" y="311" type="curve" smooth="yes"/>
      <point x="193" y="321"/>
      <point x="174" y="330"/>
      <point x="163" y="337" type="curve" smooth="yes"/>
      <point x="153" y="344"/>
      <point x="146" y="351"/>
      <point x="142" y="358" type="curve" smooth="yes"/>
      <point x="138" y="364"/>
      <point x="136" y="372"/>
      <point x="136" y="382" type="curve" smooth="yes"/>
      <point x="136" y="396"/>
      <point x="142" y="408"/>
      <point x="154" y="416" type="curve" smooth="yes"/>
      <point x="166" y="424"/>
      <point x="181" y="428"/>
      <point x="201" y="428" type="curve" smooth="yes"/>
      <point x="223" y="428"/>
      <point x="247" y="424"/>
      <point x="271" y="418" type="curve" smooth="yes"/>
      <point x="294" y="411"/>
      <point x="323" y="399"/>
      <point x="358" y="381" type="curve"/>
      <point x="358" y="503" type="line"/>
      <point x="301" y="522"/>
      <point x="249" y="532"/>
      <point x="203" y="532" type="curve" smooth="yes"/>
      <point x="147" y="532"/>
      <point x="102" y="518"/>
      <point x="67" y="491" type="curve" smooth="yes"/>
      <point x="31" y="463"/>
      <point x="14" y="424"/>
      <point x="14" y="374" type="curve" smooth="yes"/>
      <point x="14" y="338"/>
      <point x="23" y="309"/>
      <point x="41" y="287" type="curve" smooth="yes"/>
      <point x="59" y="265"/>
      <point x="78" y="248"/>
      <point x="99" y="238" type="curve" smooth="yes"/>
      <point x="122" y="226"/>
      <point x="146" y="216"/>
      <point x="170" y="207" type="curve" smooth="yes"/>
      <point x="193" y="197"/>
      <point x="211" y="188"/>
      <point x="224" y="182" type="curve" smooth="yes"/>
      <point x="236" y="174"/>
      <point x="246" y="167"/>
      <point x="253" y="159" type="curve" smooth="yes"/>
      <point x="259" y="150"/>
      <point x="262" y="140"/>
      <point x="262" y="129" type="curve" smooth="yes"/>
      <point x="262" y="112"/>
      <point x="253" y="98"/>
      <point x="235" y="88" type="curve" smooth="yes"/>
      <point x="222" y="82"/>
      <point x="201" y="79"/>
      <point x="171" y="79" type="curve" smooth="yes"/>
      <point x="153" y="79"/>
      <point x="130" y="83"/>
      <point x="102" y="92" type="curve" smooth="yes"/>
      <point x="72" y="100"/>
      <point x="42" y="114"/>
      <point x="12" y="133" type="curve"/>
      <point x="12" y="4" type="line"/>
      <point x="78" y="-16"/>
      <point x="131" y="-27"/>
      <point x="171" y="-27" type="curve" smooth="yes"/>
      <point x="205" y="-27"/>
      <point x="237" y="-23"/>
      <point x="267" y="-16" type="curve" smooth="yes"/>
      <point x="296" y="-8"/>
      <point x="319" y="3"/>
      <point x="337" y="18" type="curve" smooth="yes"/>
      <point x="353" y="31"/>
      <point x="365" y="48"/>
      <point x="374" y="69" type="curve" smooth="yes"/>
      <point x="382" y="89"/>
      <point x="386" y="110"/>
    </contour>
  </outline>
</glyph>
<glyph name="u" format="2">
  <advance width="500"/>
  <unicode hex="0075"/>
  <outline>
    <contour>
      <point x="39" y="520" type="line"/>
      <point x="39" y="164" type="line" smooth="yes"/>
      <point x="39" y="101"/>
      <point x="55" y="53"/>
      <point x="89" y="20" type="curve" smooth="yes"/>
      <point x="121" y="-12"/>
      <point x="168" y="-28"/>
      <point x="228" y="-28" type="curve" smooth="yes"/>
      <point x="250" y="-28"/>
      <point x="272" y="-22"/>
      <point x="294" y="-10" type="curve" smooth="yes"/>
      <point x="314" y="2"/>
      <point x="329" y="14"/>
      <point x="338" y="27" type="curve"/>
      <point x="338" y="-16" type="line"/>
      <point x="461" y="-16" type="line"/>
      <point x="461" y="520" type="line"/>
      <point x="338" y="520" type="line"/>
      <point x="338" y="285" type="line" smooth="yes"/>
      <point x="338" y="271"/>
      <point x="337" y="258"/>
      <point x="337" y="248" type="curve" smooth="yes"/>
      <point x="335" y="236"/>
      <point x="333" y="225"/>
      <point x="331" y="214" type="curve" smooth="yes"/>
      <point x="321" y="168"/>
      <point x="307" y="135"/>
      <point x="289" y="114" type="curve" smooth="yes"/>
      <point x="270" y="92"/>
      <point x="251" y="82"/>
      <point x="232" y="82" type="curve" smooth="yes"/>
      <point x="210" y="82"/>
      <point x="194" y="88"/>
      <point x="185" y="101" type="curve" smooth="yes"/>
      <point x="170" y="122"/>
      <point x="163" y="151"/>
      <point x="163" y="187" type="curve" smooth="yes"/>
      <point x="163" y="520" type="line"/>
    </contour>
  </outline>
</glyph>
<glyph name="y" format="2">
  <advance width="455"/>
  <unicode hex="0079"/>
  <outline>
    <contour>
      <point x="337" y="520" type="line"/>
      <point x="232" y="206" type="line"/>
      <point x="119" y="520" type="line"/>
      <point x="-12" y="519" type="line"/>
      <point x="173" y="32" type="line"/>
      <point x="106" y="-168" type="line"/>
      <point x="231" y="-168" type="line"/>
      <point x="463" y="520" type="line"/>
    </contour>
  </outline>
</glyph>
<glyph name="braceright" format="2">
  <advance width="406"/>
  <unicode hex="007D"/>
  <outline>
    <contour>
      <point x="319" y="293" type="curve"/>
      <point x="319" y="367" type="line"/>
      <point x="284" y="377"/>
      <point x="259" y="390"/>
      <point x="245" y="406" type="curve" smooth="yes"/>
      <point x="230" y="420"/>
      <point x="223" y="439"/>
      <point x="223" y="462" type="curve" smooth="yes"/>
      <point x="223" y="478"/>
      <point x="225" y="496"/>
      <point x="231" y="518" type="curve" smooth="yes"/>
      <point x="236" y="539"/>
      <point x="240" y="557"/>
      <point x="242" y="572" type="curve" smooth="yes"/>
      <point x="244" y="592"/>
      <point x="246" y="613"/>
      <point x="246" y="636" type="curve" smooth="yes"/>
      <point x="246" y="658"/>
      <point x="241" y="681"/>
      <point x="231" y="705" type="curve" smooth="yes"/>
      <point x="220" y="726"/>
      <point x="208" y="744"/>
      <point x="194" y="760" type="curve" smooth="yes"/>
      <point x="180" y="774"/>
      <point x="164" y="786"/>
      <point x="148" y="795" type="curve" smooth="yes"/>
      <point x="130" y="803"/>
      <point x="112" y="809"/>
      <point x="94" y="815" type="curve" smooth="yes"/>
      <point x="75" y="820"/>
      <point x="50" y="821"/>
      <point x="18" y="818" type="curve"/>
      <point x="18" y="748" type="line"/>
      <point x="52" y="738"/>
      <point x="75" y="726"/>
      <point x="87" y="712" type="curve" smooth="yes"/>
      <point x="98" y="696"/>
      <point x="106" y="681"/>
      <point x="110" y="665" type="curve" smooth="yes"/>
      <point x="115" y="644"/>
      <point x="117" y="624"/>
      <point x="115" y="604" type="curve" smooth="yes"/>
      <point x="112" y="584"/>
      <point x="109" y="563"/>
      <point x="106" y="543" type="curve" smooth="yes"/>
      <point x="102" y="522"/>
      <point x="102" y="500"/>
      <point x="104" y="477" type="curve" smooth="yes"/>
      <point x="105" y="453"/>
      <point x="110" y="433"/>
      <point x="118" y="415" type="curve" smooth="yes"/>
      <point x="132" y="385"/>
      <point x="147" y="363"/>
      <point x="163" y="351" type="curve" smooth="yes"/>
      <point x="178" y="338"/>
      <point x="187" y="331"/>
      <point x="190" y="330" type="curve"/>
      <point x="187" y="328"/>
      <point x="178" y="321"/>
      <point x="163" y="309" type="curve" smooth="yes"/>
      <point x="147" y="296"/>
      <point x="132" y="275"/>
      <point x="118" y="245" type="curve" smooth="yes"/>
      <point x="110" y="227"/>
      <point x="105" y="206"/>
      <point x="104" y="183" type="curve" smooth="yes"/>
      <point x="102" y="159"/>
      <point x="102" y="137"/>
      <point x="106" y="117" type="curve" smooth="yes"/>
      <point x="109" y="96"/>
      <point x="112" y="76"/>
      <point x="115" y="56" type="curve" smooth="yes"/>
      <point x="117" y="36"/>
      <point x="115" y="15"/>
      <point x="110" y="-6" type="curve" smooth="yes"/>
      <point x="106" y="-21"/>
      <point x="98" y="-36"/>
      <point x="87" y="-52" type="curve" smooth="yes"/>
      <point x="75" y="-66"/>
      <point x="52" y="-78"/>
      <point x="18" y="-88" type="curve"/>
      <point x="18" y="-158" type="line"/>
      <point x="50" y="-161"/>
      <point x="75" y="-160"/>
      <point x="94" y="-155" type="curve" smooth="yes"/>
      <point x="112" y="-149"/>
      <point x="130" y="-143"/>
      <point x="148" y="-135" type="curve" smooth="yes"/>
      <point x="164" y="-126"/>
      <point x="180" y="-114"/>
      <point x="194" y="-100" type="curve" smooth="yes"/>
      <point x="208" y="-84"/>
      <point x="220" y="-66"/>
      <point x="231" y="-45" type="curve" smooth="yes"/>
      <point x="241" y="-21"/>
      <point x="246" y="1"/>
      <point x="246" y="24" type="curve" smooth="yes"/>
      <point x="246" y="46"/>
      <point x="244" y="68"/>
      <point x="242" y="88" type="curve" smooth="yes"/>
      <point x="240" y="102"/>
      <point x="236" y="120"/>
      <point x="231" y="142" type="curve" smooth="yes"/>
      <point x="225" y="163"/>
      <point x="223" y="181"/>
      <point x="223" y="197" type="curve" smooth="yes"/>
      <point x="223" y="220"/>
      <point x="230" y="239"/>
      <point x="245" y="255" type="curve" smooth="yes"/>
      <point x="259" y="269"/>
      <point x="284" y="282"/>
    </contour>
  </outline>
</glyph>
<glyph name="uni0081" format="2">
  <advance width="900"/>
  <unicode hex="0081"/>
  <outline>
    <contour>
      <point x="899" y="389" type="line"/>
      <point x="899" y="442" type="line"/>
      <point x="758" y="442" type="line"/>
      <point x="808" y="714" type="line"/>
      <point x="739" y="714" type="line"/>
      <point x="688" y="442" type="line"/>
      <point x="553" y="442" type="line"/>
      <point x="553" y="442"/>
      <point x="552" y="446"/>
      <point x="550" y="454" type="curve" smooth="yes"/>
      <point x="548" y="461"/>
      <point x="545" y="471"/>
      <point x="543" y="484" type="curve" smooth="yes"/>
      <point x="539" y="496"/>
      <point x="536" y="511"/>
      <point x="532" y="528" type="curve" smooth="yes"/>
      <point x="528" y="544"/>
      <point x="524" y="560"/>
      <point x="520" y="578" type="curve" smooth="yes"/>
      <point x="516" y="594"/>
      <point x="512" y="611"/>
      <point x="508" y="628" type="curve" smooth="yes"/>
      <point x="504" y="644"/>
      <point x="500" y="658"/>
      <point x="497" y="671" type="curve" smooth="yes"/>
      <point x="493" y="683"/>
      <point x="491" y="694"/>
      <point x="490" y="702" type="curve" smooth="yes"/>
      <point x="488" y="710"/>
      <point x="487" y="714"/>
      <point x="487" y="714" type="curve"/>
      <point x="404" y="714" type="line"/>
      <point x="342" y="442" type="line"/>
      <point x="209" y="442" type="line"/>
      <point x="154" y="714" type="line"/>
      <point x="86" y="714" type="line"/>
      <point x="140" y="442" type="line"/>
      <point x="9" y="442" type="line"/>
      <point x="9" y="389" type="line"/>
      <point x="151" y="389" type="line"/>
      <point x="221" y="40" type="line"/>
      <point x="314" y="40" type="line"/>
      <point x="395" y="389" type="line"/>
      <point x="504" y="389" type="line"/>
      <point x="590" y="40" type="line"/>
      <point x="684" y="40" type="line"/>
      <point x="748" y="389" type="line"/>
    </contour>
    <contour>
      <point x="490" y="442" type="curve"/>
      <point x="407" y="442" type="line"/>
      <point x="447" y="612" type="line"/>
      <point x="449" y="612" type="line"/>
      <point x="449" y="612"/>
      <point x="451" y="603"/>
      <point x="456" y="585" type="curve" smooth="yes"/>
      <point x="460" y="567"/>
      <point x="464" y="547"/>
      <point x="469" y="527" type="curve" smooth="yes"/>
      <point x="474" y="505"/>
      <point x="479" y="486"/>
      <point x="484" y="469" type="curve" smooth="yes"/>
      <point x="488" y="451"/>
      <point x="490" y="442"/>
    </contour>
    <contour>
      <point x="678" y="389" type="line"/>
      <point x="631" y="135" type="line"/>
      <point x="629" y="135" type="line"/>
      <point x="629" y="135"/>
      <point x="628" y="138"/>
      <point x="626" y="146" type="curve" smooth="yes"/>
      <point x="624" y="152"/>
      <point x="621" y="162"/>
      <point x="619" y="174" type="curve" smooth="yes"/>
      <point x="615" y="186"/>
      <point x="612" y="199"/>
      <point x="609" y="215" type="curve" smooth="yes"/>
      <point x="605" y="230"/>
      <point x="601" y="246"/>
      <point x="597" y="262" type="curve" smooth="yes"/>
      <point x="593" y="277"/>
      <point x="590" y="292"/>
      <point x="586" y="308" type="curve" smooth="yes"/>
      <point x="582" y="323"/>
      <point x="578" y="337"/>
      <point x="576" y="349" type="curve" smooth="yes"/>
      <point x="572" y="361"/>
      <point x="570" y="370"/>
      <point x="569" y="378" type="curve" smooth="yes"/>
      <point x="567" y="385"/>
      <point x="566" y="389"/>
      <point x="566" y="389" type="curve"/>
    </contour>
    <contour>
      <point x="330" y="389" type="line"/>
      <point x="273" y="139" type="line"/>
      <point x="271" y="139" type="line"/>
      <point x="220" y="389" type="line"/>
    </contour>
  </outline>
</glyph>
<glyph name="dieresis" format="2">
  <advance width="518"/>
  <unicode hex="00A8"/>
  <outline>
    <contour>
      <point x="194" y="796" type="line"/>
      <point x="66" y="796" type="line"/>
      <point x="66" y="664" type="line"/>
      <point x="194" y="664" type="line"/>
    </contour>
    <contour>
      <point x="453" y="796" type="line"/>
      <point x="325" y="796" type="line"/>
      <point x="325" y="664" type="line"/>
      <point x="453" y="664" type="line"/>
    </contour>
  </outline>
</glyph>
<glyph name="copyright" format="2">
  <advance width="838"/>
  <unicode hex="00A9"/>
  <outline>
    <contour>
      <point x="602" y="436" type="line"/>
      <point x="602" y="475"/>
      <point x="597" y="505"/>
      <point x="587" y="527" type="curve" smooth="yes"/>
      <point x="577" y="547"/>
      <point x="563" y="565"/>
      <point x="547" y="580" type="curve" smooth="yes"/>
      <point x="531" y="594"/>
      <point x="512" y="606"/>
      <point x="491" y="615" type="curve" smooth="yes"/>
      <point x="469" y="623"/>
      <point x="446" y="628"/>
      <point x="420" y="628" type="curve" smooth="yes"/>
      <point x="381" y="628"/>
      <point x="347" y="619"/>
      <point x="318" y="603" type="curve" smooth="yes"/>
      <point x="288" y="586"/>
      <point x="264" y="565"/>
      <point x="244" y="539" type="curve" smooth="yes"/>
      <point x="224" y="513"/>
      <point x="210" y="483"/>
      <point x="202" y="450" type="curve" smooth="yes"/>
      <point x="193" y="416"/>
      <point x="189" y="381"/>
      <point x="189" y="345" type="curve" smooth="yes"/>
      <point x="189" y="309"/>
      <point x="193" y="274"/>
      <point x="201" y="240" type="curve" smooth="yes"/>
      <point x="208" y="205"/>
      <point x="222" y="173"/>
      <point x="242" y="144" type="curve" smooth="yes"/>
      <point x="262" y="114"/>
      <point x="288" y="90"/>
      <point x="321" y="73" type="curve" smooth="yes"/>
      <point x="353" y="55"/>
      <point x="385" y="46"/>
      <point x="419" y="46" type="curve" smooth="yes"/>
      <point x="459" y="46"/>
      <point x="495" y="50"/>
      <point x="525" y="59" type="curve" smooth="yes"/>
      <point x="537" y="62"/>
      <point x="548" y="66"/>
      <point x="557" y="71" type="curve" smooth="yes"/>
      <point x="565" y="75"/>
      <point x="574" y="79"/>
      <point x="585" y="85" type="curve"/>
      <point x="585" y="198" type="line"/>
      <point x="549" y="170"/>
      <point x="521" y="153"/>
      <point x="501" y="146" type="curve" smooth="yes"/>
      <point x="480" y="138"/>
      <point x="459" y="134"/>
      <point x="437" y="134" type="curve" smooth="yes"/>
      <point x="410" y="134"/>
      <point x="386" y="141"/>
      <point x="366" y="156" type="curve" smooth="yes"/>
      <point x="345" y="170"/>
      <point x="328" y="188"/>
      <point x="316" y="210" type="curve" smooth="yes"/>
      <point x="305" y="233"/>
      <point x="298" y="257"/>
      <point x="294" y="282" type="curve" smooth="yes"/>
      <point x="289" y="306"/>
      <point x="287" y="327"/>
      <point x="287" y="345" type="curve" smooth="yes"/>
      <point x="287" y="371"/>
      <point x="290" y="398"/>
      <point x="298" y="426" type="curve" smooth="yes"/>
      <point x="305" y="453"/>
      <point x="316" y="475"/>
      <point x="330" y="492" type="curve" smooth="yes"/>
      <point x="342" y="508"/>
      <point x="356" y="521"/>
      <point x="372" y="529" type="curve" smooth="yes"/>
      <point x="387" y="536"/>
      <point x="403" y="540"/>
      <point x="420" y="540" type="curve" smooth="yes"/>
      <point x="430" y="539"/>
      <point x="440" y="537"/>
      <point x="450" y="534" type="curve" smooth="yes"/>
      <point x="459" y="530"/>
      <point x="468" y="525"/>
      <point x="476" y="519" type="curve" smooth="yes"/>
      <point x="483" y="512"/>
      <point x="489" y="504"/>
      <point x="495" y="494" type="curve" smooth="yes"/>
      <point x="499" y="484"/>
      <point x="502" y="464"/>
      <point x="502" y="436" type="curve"/>
    </contour>
    <contour>
      <point x="834" y="331" type="curve" smooth="yes"/>
      <point x="834" y="393"/>
      <point x="823" y="449"/>
      <point x="801" y="500" type="curve" smooth="yes"/>
      <point x="779" y="550"/>
      <point x="749" y="594"/>
      <point x="711" y="632" type="curve" smooth="yes"/>
      <point x="673" y="670"/>
      <point x="630" y="700"/>
      <point x="580" y="723" type="curve" smooth="yes"/>
      <point x="530" y="745"/>
      <point x="476" y="756"/>
      <point x="419" y="756" type="curve" smooth="yes"/>
      <point x="361" y="756"/>
      <point x="308" y="745"/>
      <point x="258" y="723" type="curve" smooth="yes"/>
      <point x="208" y="700"/>
      <point x="164" y="670"/>
      <point x="126" y="632" type="curve" smooth="yes"/>
      <point x="88" y="594"/>
      <point x="59" y="550"/>
      <point x="37" y="500" type="curve" smooth="yes"/>
      <point x="15" y="449"/>
      <point x="4" y="393"/>
      <point x="4" y="331" type="curve" smooth="yes"/>
      <point x="4" y="269"/>
      <point x="15" y="213"/>
      <point x="37" y="163" type="curve" smooth="yes"/>
      <point x="59" y="112"/>
      <point x="88" y="68"/>
      <point x="126" y="30" type="curve" smooth="yes"/>
      <point x="164" y="-7"/>
      <point x="208" y="-37"/>
      <point x="258" y="-59" type="curve" smooth="yes"/>
      <point x="308" y="-81"/>
      <point x="361" y="-92"/>
      <point x="419" y="-92" type="curve" smooth="yes"/>
      <point x="476" y="-92"/>
      <point x="530" y="-81"/>
      <point x="580" y="-59" type="curve" smooth="yes"/>
      <point x="630" y="-37"/>
      <point x="673" y="-7"/>
      <point x="711" y="30" type="curve" smooth="yes"/>
      <point x="749" y="68"/>
      <point x="779" y="112"/>
      <point x="801" y="163" type="curve" smooth="yes"/>
      <point x="823" y="213"/>
      <point x="834" y="269"/>
    </contour>
    <contour>
      <point x="748" y="331" type="curve" smooth="yes"/>
      <point x="748" y="280"/>
      <point x="739" y="234"/>
      <point x="722" y="194" type="curve" smooth="yes"/>
      <point x="704" y="152"/>
      <point x="680" y="116"/>
      <point x="650" y="86" type="curve" smooth="yes"/>
      <point x="620" y="56"/>
      <point x="586" y="33"/>
      <point x="546" y="16" type="curve" smooth="yes"/>
      <point x="506" y="-1"/>
      <point x="463" y="-10"/>
      <point x="419" y="-10" type="curve" smooth="yes"/>
      <point x="374" y="-10"/>
      <point x="332" y="-1"/>
      <point x="292" y="16" type="curve" smooth="yes"/>
      <point x="252" y="33"/>
      <point x="217" y="56"/>
      <point x="187" y="86" type="curve" smooth="yes"/>
      <point x="157" y="116"/>
      <point x="134" y="152"/>
      <point x="117" y="194" type="curve" smooth="yes"/>
      <point x="99" y="234"/>
      <point x="90" y="280"/>
      <point x="90" y="331" type="curve" smooth="yes"/>
      <point x="90" y="382"/>
      <point x="99" y="428"/>
      <point x="117" y="470" type="curve" smooth="yes"/>
      <point x="134" y="510"/>
      <point x="157" y="546"/>
      <point x="187" y="576" type="curve" smooth="yes"/>
      <point x="217" y="606"/>
      <point x="252" y="630"/>
      <point x="292" y="648" type="curve" smooth="yes"/>
      <point x="332" y="665"/>
      <point x="374" y="674"/>
      <point x="419" y="674" type="curve" smooth="yes"/>
      <point x="463" y="674"/>
      <point x="506" y="665"/>
      <point x="546" y="648" type="curve" smooth="yes"/>
      <point x="586" y="630"/>
      <point x="620" y="606"/>
      <point x="650" y="576" type="curve" smooth="yes"/>
      <point x="680" y="546"/>
      <point x="704" y="510"/>
      <point x="722" y="470" type="curve" smooth="yes"/>
      <point x="739" y="428"/>
      <point x="748" y="382"/>
    </contour>
  </outline>
</glyph>
<glyph name="registered" format="2">
  <advance width="838"/>
  <unicode hex="00AE"/>
  <outline>
    <contour>
      <point x="701" y="254" type="line"/>
      <point x="642" y="254" type="line" smooth="yes"/>
      <point x="629" y="254"/>
      <point x="620" y="251"/>
      <point x="615" y="247" type="curve" smooth="yes"/>
      <point x="609" y="241"/>
      <point x="605" y="235"/>
      <point x="601" y="229" type="curve" smooth="yes"/>
      <point x="599" y="224"/>
      <point x="598" y="219"/>
      <point x="597" y="215" type="curve" smooth="yes"/>
      <point x="595" y="210"/>
      <point x="591" y="205"/>
      <point x="587" y="200" type="curve" smooth="yes"/>
      <point x="583" y="196"/>
      <point x="578" y="192"/>
      <point x="573" y="190" type="curve" smooth="yes"/>
      <point x="567" y="186"/>
      <point x="562" y="185"/>
      <point x="558" y="185" type="curve" smooth="yes"/>
      <point x="333" y="185" type="line"/>
      <point x="344" y="191"/>
      <point x="356" y="198"/>
      <point x="370" y="206" type="curve" smooth="yes"/>
      <point x="382" y="213"/>
      <point x="415" y="226"/>
      <point x="469" y="246" type="curve" smooth="yes"/>
      <point x="488" y="252"/>
      <point x="508" y="260"/>
      <point x="529" y="269" type="curve" smooth="yes"/>
      <point x="549" y="277"/>
      <point x="569" y="287"/>
      <point x="588" y="300" type="curve" smooth="yes"/>
      <point x="608" y="312"/>
      <point x="625" y="326"/>
      <point x="641" y="343" type="curve" smooth="yes"/>
      <point x="656" y="359"/>
      <point x="669" y="378"/>
      <point x="679" y="401" type="curve" smooth="yes"/>
      <point x="689" y="429"/>
      <point x="692" y="458"/>
      <point x="690" y="486" type="curve" smooth="yes"/>
      <point x="686" y="514"/>
      <point x="677" y="539"/>
      <point x="662" y="561" type="curve" smooth="yes"/>
      <point x="648" y="582"/>
      <point x="629" y="601"/>
      <point x="606" y="617" type="curve" smooth="yes"/>
      <point x="582" y="633"/>
      <point x="557" y="644"/>
      <point x="530" y="651" type="curve" smooth="yes"/>
      <point x="515" y="653"/>
      <point x="496" y="656"/>
      <point x="474" y="659" type="curve" smooth="yes"/>
      <point x="450" y="661"/>
      <point x="425" y="662"/>
      <point x="399" y="662" type="curve" smooth="yes"/>
      <point x="371" y="660"/>
      <point x="342" y="656"/>
      <point x="314" y="648" type="curve" smooth="yes"/>
      <point x="284" y="640"/>
      <point x="257" y="627"/>
      <point x="231" y="609" type="curve" smooth="yes"/>
      <point x="218" y="598"/>
      <point x="206" y="586"/>
      <point x="195" y="574" type="curve" smooth="yes"/>
      <point x="183" y="560"/>
      <point x="174" y="545"/>
      <point x="166" y="529" type="curve" smooth="yes"/>
      <point x="160" y="512"/>
      <point x="158" y="494"/>
      <point x="159" y="475" type="curve" smooth="yes"/>
      <point x="159" y="455"/>
      <point x="165" y="435"/>
      <point x="177" y="417" type="curve" smooth="yes"/>
      <point x="185" y="401"/>
      <point x="197" y="390"/>
      <point x="213" y="384" type="curve" smooth="yes"/>
      <point x="229" y="376"/>
      <point x="245" y="373"/>
      <point x="262" y="375" type="curve" smooth="yes"/>
      <point x="278" y="376"/>
      <point x="294" y="383"/>
      <point x="309" y="395" type="curve" smooth="yes"/>
      <point x="323" y="406"/>
      <point x="334" y="422"/>
      <point x="342" y="443" type="curve" smooth="yes"/>
      <point x="347" y="465"/>
      <point x="346" y="485"/>
      <point x="340" y="504" type="curve" smooth="yes"/>
      <point x="332" y="522"/>
      <point x="328" y="531"/>
      <point x="328" y="533" type="curve" smooth="yes"/>
      <point x="328" y="534"/>
      <point x="337" y="538"/>
      <point x="355" y="544" type="curve" smooth="yes"/>
      <point x="372" y="549"/>
      <point x="399" y="551"/>
      <point x="436" y="551" type="curve" smooth="yes"/>
      <point x="451" y="549"/>
      <point x="464" y="544"/>
      <point x="476" y="536" type="curve" smooth="yes"/>
      <point x="486" y="528"/>
      <point x="493" y="517"/>
      <point x="497" y="504" type="curve" smooth="yes"/>
      <point x="503" y="490"/>
      <point x="504" y="476"/>
      <point x="501" y="460" type="curve" smooth="yes"/>
      <point x="497" y="444"/>
      <point x="490" y="427"/>
      <point x="479" y="411" type="curve" smooth="yes"/>
      <point x="471" y="400"/>
      <point x="460" y="390"/>
      <point x="448" y="382" type="curve" smooth="yes"/>
      <point x="435" y="373"/>
      <point x="420" y="364"/>
      <point x="403" y="355" type="curve" smooth="yes"/>
      <point x="386" y="345"/>
      <point x="368" y="335"/>
      <point x="348" y="325" type="curve" smooth="yes"/>
      <point x="327" y="314"/>
      <point x="306" y="301"/>
      <point x="284" y="287" type="curve" smooth="yes"/>
      <point x="242" y="257"/>
      <point x="208" y="227"/>
      <point x="182" y="196" type="curve" smooth="yes"/>
      <point x="156" y="164"/>
      <point x="143" y="130"/>
      <point x="143" y="96" type="curve" smooth="yes"/>
      <point x="143" y="12" type="line"/>
      <point x="682" y="12" type="line"/>
    </contour>
    <contour>
      <point x="155" y="-61" type="line" smooth="yes"/>
      <point x="143" y="-61"/>
      <point x="133" y="-59"/>
      <point x="124" y="-56" type="curve" smooth="yes"/>
      <point x="114" y="-52"/>
      <point x="106" y="-48"/>
      <point x="100" y="-42" type="curve" smooth="yes"/>
      <point x="91" y="-33"/>
      <point x="85" y="-22"/>
      <point x="83" y="-8" type="curve" smooth="yes"/>
      <point x="79" y="6"/>
      <point x="78" y="20"/>
      <point x="78" y="36" type="curve" smooth="yes"/>
      <point x="78" y="628" type="line" smooth="yes"/>
      <point x="78" y="640"/>
      <point x="79" y="654"/>
      <point x="83" y="668" type="curve" smooth="yes"/>
      <point x="85" y="682"/>
      <point x="89" y="692"/>
      <point x="94" y="699" type="curve" smooth="yes"/>
      <point x="101" y="708"/>
      <point x="110" y="715"/>
      <point x="122" y="719" type="curve" smooth="yes"/>
      <point x="132" y="723"/>
      <point x="144" y="725"/>
      <point x="158" y="725" type="curve" smooth="yes"/>
      <point x="677" y="725" type="line" smooth="yes"/>
      <point x="691" y="725"/>
      <point x="703" y="723"/>
      <point x="714" y="719" type="curve" smooth="yes"/>
      <point x="724" y="715"/>
      <point x="734" y="708"/>
      <point x="742" y="699" type="curve" smooth="yes"/>
      <point x="746" y="693"/>
      <point x="750" y="683"/>
      <point x="754" y="669" type="curve" smooth="yes"/>
      <point x="757" y="654"/>
      <point x="759" y="640"/>
      <point x="759" y="628" type="curve" smooth="yes"/>
      <point x="759" y="37" type="line" smooth="yes"/>
      <point x="759" y="21"/>
      <point x="757" y="6"/>
      <point x="753" y="-8" type="curve" smooth="yes"/>
      <point x="749" y="-22"/>
      <point x="743" y="-34"/>
      <point x="735" y="-42" type="curve" smooth="yes"/>
      <point x="729" y="-48"/>
      <point x="722" y="-52"/>
      <point x="713" y="-56" type="curve" smooth="yes"/>
      <point x="703" y="-59"/>
      <point x="691" y="-61"/>
      <point x="679" y="-61" type="curve" smooth="yes"/>
    </contour>
    <contour>
      <point x="166" y="790" type="line" smooth="yes"/>
      <point x="160" y="790"/>
      <point x="153" y="789"/>
      <point x="143" y="789" type="curve" smooth="yes"/>
      <point x="132" y="788"/>
      <point x="121" y="786"/>
      <point x="109" y="784" type="curve" smooth="yes"/>
      <point x="96" y="780"/>
      <point x="84" y="775"/>
      <point x="72" y="769" type="curve" smooth="yes"/>
      <point x="60" y="762"/>
      <point x="49" y="753"/>
      <point x="41" y="742" type="curve" smooth="yes"/>
      <point x="27" y="723"/>
      <point x="18" y="704"/>
      <point x="15" y="684" type="curve" smooth="yes"/>
      <point x="11" y="663"/>
      <point x="10" y="646"/>
      <point x="10" y="634" type="curve" smooth="yes"/>
      <point x="10" y="46" type="line" smooth="yes"/>
      <point x="10" y="40"/>
      <point x="10" y="31"/>
      <point x="11" y="20" type="curve" smooth="yes"/>
      <point x="11" y="8"/>
      <point x="13" y="-4"/>
      <point x="16" y="-16" type="curve" smooth="yes"/>
      <point x="18" y="-30"/>
      <point x="22" y="-43"/>
      <point x="28" y="-56" type="curve" smooth="yes"/>
      <point x="34" y="-68"/>
      <point x="42" y="-79"/>
      <point x="53" y="-88" type="curve" smooth="yes"/>
      <point x="67" y="-102"/>
      <point x="84" y="-112"/>
      <point x="104" y="-118" type="curve" smooth="yes"/>
      <point x="123" y="-123"/>
      <point x="139" y="-126"/>
      <point x="151" y="-126" type="curve" smooth="yes"/>
      <point x="682" y="-126" type="line" smooth="yes"/>
      <point x="695" y="-126"/>
      <point x="711" y="-123"/>
      <point x="730" y="-118" type="curve" smooth="yes"/>
      <point x="748" y="-112"/>
      <point x="766" y="-102"/>
      <point x="782" y="-88" type="curve" smooth="yes"/>
      <point x="792" y="-79"/>
      <point x="801" y="-68"/>
      <point x="807" y="-56" type="curve" smooth="yes"/>
      <point x="813" y="-43"/>
      <point x="817" y="-30"/>
      <point x="819" y="-16" type="curve" smooth="yes"/>
      <point x="821" y="-4"/>
      <point x="823" y="8"/>
      <point x="825" y="20" type="curve" smooth="yes"/>
      <point x="825" y="31"/>
      <point x="826" y="40"/>
      <point x="826" y="46" type="curve" smooth="yes"/>
      <point x="826" y="634" type="line" smooth="yes"/>
      <point x="826" y="646"/>
      <point x="824" y="663"/>
      <point x="821" y="684" type="curve" smooth="yes"/>
      <point x="817" y="704"/>
      <point x="808" y="723"/>
      <point x="795" y="742" type="curve" smooth="yes"/>
      <point x="786" y="753"/>
      <point x="776" y="762"/>
      <point x="764" y="769" type="curve" smooth="yes"/>
      <point x="752" y="775"/>
      <point x="739" y="780"/>
      <point x="726" y="784" type="curve" smooth="yes"/>
      <point x="714" y="786"/>
      <point x="704" y="788"/>
      <point x="694" y="789" type="curve" smooth="yes"/>
      <point x="683" y="789"/>
      <point x="675" y="790"/>
      <point x="669" y="790" type="curve" smooth="yes"/>
    </contour>
  </outline>
</glyph>
<glyph name="germandbls" format="2">
  <advance width="537"/>
  <unicode hex="00DF"/>
  <outline>
    <contour>
      <point x="258" y="326" type="line" smooth="yes"/>
      <point x="280" y="326"/>
      <point x="299" y="324"/>
      <point x="315" y="320" type="curve" smooth="yes"/>
      <point x="330" y="315"/>
      <point x="344" y="308"/>
      <point x="356" y="298" type="curve" smooth="yes"/>
      <point x="368" y="288"/>
      <point x="378" y="276"/>
      <point x="386" y="262" type="curve" smooth="yes"/>
      <point x="393" y="246"/>
      <point x="397" y="228"/>
      <point x="398" y="207" type="curve" smooth="yes"/>
      <point x="395" y="162"/>
      <point x="382" y="131"/>
      <point x="358" y="115" type="curve" smooth="yes"/>
      <point x="333" y="98"/>
      <point x="295" y="90"/>
      <point x="244" y="90" type="curve" smooth="yes"/>
      <point x="203" y="90" type="line"/>
      <point x="203" y="-13" type="line"/>
      <point x="265" y="-13" type="line" smooth="yes"/>
      <point x="298" y="-13"/>
      <point x="329" y="-9"/>
      <point x="358" y="-2" type="curve" smooth="yes"/>
      <point x="386" y="6"/>
      <point x="412" y="18"/>
      <point x="435" y="35" type="curve" smooth="yes"/>
      <point x="457" y="52"/>
      <point x="476" y="75"/>
      <point x="491" y="103" type="curve" smooth="yes"/>
      <point x="505" y="131"/>
      <point x="512" y="165"/>
      <point x="512" y="205" type="curve" smooth="yes"/>
      <point x="512" y="241"/>
      <point x="506" y="272"/>
      <point x="494" y="296" type="curve" smooth="yes"/>
      <point x="482" y="320"/>
      <point x="467" y="339"/>
      <point x="451" y="354" type="curve" smooth="yes"/>
      <point x="434" y="366"/>
      <point x="421" y="374"/>
      <point x="411" y="378" type="curve" smooth="yes"/>
      <point x="400" y="382"/>
      <point x="396" y="383"/>
      <point x="398" y="383" type="curve" smooth="yes"/>
      <point x="410" y="387"/>
      <point x="427" y="404"/>
      <point x="451" y="432" type="curve" smooth="yes"/>
      <point x="474" y="460"/>
      <point x="486" y="497"/>
      <point x="486" y="545" type="curve" smooth="yes"/>
      <point x="484" y="612"/>
      <point x="462" y="661"/>
      <point x="422" y="693" type="curve" smooth="yes"/>
      <point x="381" y="723"/>
      <point x="331" y="739"/>
      <point x="273" y="739" type="curve" smooth="yes"/>
      <point x="208" y="739"/>
      <point x="157" y="716"/>
      <point x="119" y="672" type="curve" smooth="yes"/>
      <point x="81" y="626"/>
      <point x="62" y="566"/>
      <point x="62" y="492" type="curve" smooth="yes"/>
      <point x="62" y="-13" type="line"/>
      <point x="174" y="-13" type="line"/>
      <point x="174" y="484" type="line" smooth="yes"/>
      <point x="174" y="535"/>
      <point x="182" y="573"/>
      <point x="198" y="599" type="curve" smooth="yes"/>
      <point x="214" y="623"/>
      <point x="238" y="636"/>
      <point x="272" y="636" type="curve" smooth="yes"/>
      <point x="302" y="636"/>
      <point x="327" y="628"/>
      <point x="346" y="612" type="curve" smooth="yes"/>
      <point x="364" y="596"/>
      <point x="374" y="572"/>
      <point x="374" y="540" type="curve" smooth="yes"/>
      <point x="374" y="517"/>
      <point x="370" y="498"/>
      <point x="364" y="484" type="curve" smooth="yes"/>
      <point x="356" y="468"/>
      <point x="347" y="457"/>
      <point x="335" y="451" type="curve" smooth="yes"/>
      <point x="323" y="442"/>
      <point x="309" y="436"/>
      <point x="293" y="433" type="curve" smooth="yes"/>
      <point x="275" y="429"/>
      <point x="252" y="428"/>
      <point x="223" y="428" type="curve" smooth="yes"/>
      <point x="208" y="428" type="line"/>
      <point x="208" y="326" type="line"/>
    </contour>
  </outline>
</glyph>
<glyph name="hbar" format="2">
  <advance width="538"/>
  <unicode hex="0127"/>
  <outline>
    <contour>
      <point x="88" y="538" type="line"/>
      <point x="88" y="-13" type="line"/>
      <point x="194" y="-13" type="line"/>
      <point x="194" y="214" type="line" smooth="yes"/>
      <point x="194" y="228"/>
      <point x="194" y="240"/>
      <point x="196" y="252" type="curve" smooth="yes"/>
      <point x="196" y="262"/>
      <point x="198" y="274"/>
      <point x="202" y="286" type="curve" smooth="yes"/>
      <point x="210" y="324"/>
      <point x="225" y="355"/>
      <point x="247" y="381" type="curve" smooth="yes"/>
      <point x="268" y="406"/>
      <point x="289" y="419"/>
      <point x="310" y="419" type="curve" smooth="yes"/>
      <point x="322" y="419"/>
      <point x="332" y="416"/>
      <point x="340" y="411" type="curve" smooth="yes"/>
      <point x="347" y="405"/>
      <point x="353" y="397"/>
      <point x="359" y="389" type="curve" smooth="yes"/>
      <point x="363" y="379"/>
      <point x="367" y="369"/>
      <point x="370" y="358" type="curve" smooth="yes"/>
      <point x="372" y="346"/>
      <point x="374" y="334"/>
      <point x="374" y="324" type="curve" smooth="yes"/>
      <point x="374" y="-13" type="line"/>
      <point x="481" y="-13" type="line"/>
      <point x="481" y="361" type="line" smooth="yes"/>
      <point x="481" y="389"/>
      <point x="476" y="413"/>
      <point x="467" y="434" type="curve" smooth="yes"/>
      <point x="457" y="454"/>
      <point x="444" y="471"/>
      <point x="429" y="484" type="curve" smooth="yes"/>
      <point x="413" y="496"/>
      <point x="396" y="506"/>
      <point x="378" y="512" type="curve" smooth="yes"/>
      <point x="358" y="518"/>
      <point x="340" y="521"/>
      <point x="322" y="521" type="curve" smooth="yes"/>
      <point x="293" y="521"/>
      <point x="268" y="514"/>
      <point x="247" y="501" type="curve" smooth="yes"/>
      <point x="225" y="487"/>
      <point x="208" y="471"/>
      <point x="194" y="453" type="curve"/>
      <point x="194" y="538" type="line"/>
      <point x="410" y="538" type="line"/>
      <point x="410" y="632" type="line"/>
      <point x="194" y="632" type="line"/>
      <point x="194" y="726" type="line"/>
      <point x="88" y="726" type="line"/>
      <point x="88" y="632" type="line"/>
      <point x="2" y="632" type="line"/>
      <point x="2" y="538" type="line"/>
    </contour>
  </outline>
</glyph>
<glyph name="ij" format="2">
  <advance width="422"/>
  <unicode hex="0133"/>
  <outline>
    <contour>
      <point x="57" y="-13" type="line"/>
      <point x="170" y="-13" type="line"/>
      <point x="170" y="517" type="line"/>
      <point x="57" y="517" type="line"/>
    </contour>
    <contour>
      <point x="50" y="591" type="line"/>
      <point x="176" y="591" type="line"/>
      <point x="176" y="726" type="line"/>
      <point x="50" y="726" type="line"/>
    </contour>
    <contour>
      <point x="127" y="-167" type="line"/>
      <point x="166" y="-167"/>
      <point x="198" y="-165"/>
      <point x="223" y="-161" type="curve" smooth="yes"/>
      <point x="247" y="-156"/>
      <point x="270" y="-145"/>
      <point x="292" y="-129" type="curve" smooth="yes"/>
      <point x="312" y="-113"/>
      <point x="329" y="-92"/>
      <point x="341" y="-65" type="curve" smooth="yes"/>
      <point x="352" y="-37"/>
      <point x="358" y="-2"/>
      <point x="358" y="40" type="curve" smooth="yes"/>
      <point x="358" y="517" type="line"/>
      <point x="247" y="517" type="line"/>
      <point x="247" y="22" type="line" smooth="yes"/>
      <point x="247" y="-5"/>
      <point x="243" y="-24"/>
      <point x="236" y="-35" type="curve" smooth="yes"/>
      <point x="228" y="-45"/>
      <point x="221" y="-52"/>
      <point x="213" y="-57" type="curve" smooth="yes"/>
      <point x="203" y="-60"/>
      <point x="192" y="-62"/>
      <point x="180" y="-63" type="curve" smooth="yes"/>
      <point x="168" y="-63"/>
      <point x="150" y="-63"/>
      <point x="127" y="-63" type="curve"/>
    </contour>
    <contour>
      <point x="237" y="591" type="line"/>
      <point x="364" y="591" type="line"/>
      <point x="364" y="726" type="line"/>
      <point x="237" y="726" type="line"/>
    </contour>
  </outline>
</glyph>
<glyph name="Ldot" format="2">
  <advance width="512"/>
  <unicode hex="013F"/>
  <outline>
    <contour>
      <point x="78" y="-13" type="line"/>
      <point x="476" y="-13" type="line"/>
      <point x="476" y="92" type="line"/>
      <point x="190" y="92" type="line"/>
      <point x="190" y="726" type="line"/>
      <point x="78" y="726" type="line"/>
    </contour>
    <contour>
      <point x="280" y="435" type="line"/>
      <point x="280" y="297" type="line"/>
      <point x="410" y="297" type="line"/>
      <point x="410" y="435" type="line"/>
    </contour>
  </outline>
</glyph>
<glyph name="ldot" format="2">
  <advance width="366"/>
  <unicode hex="0140"/>
  <outline>
    <contour>
      <point x="69" y="-13" type="line"/>
      <point x="178" y="-13" type="line"/>
      <point x="178" y="726" type="line"/>
      <point x="69" y="726" type="line"/>
    </contour>
    <contour>
      <point x="204" y="461" type="line"/>
      <point x="204" y="323" type="line"/>
      <point x="334" y="323" type="line"/>
      <point x="334" y="461" type="line"/>
    </contour>
  </outline>
</glyph>
<glyph name="napostrophe" format="2">
  <advance width="661"/>
  <unicode hex="0149"/>
  <outline>
    <contour>
      <point x="208" y="-13" type="line"/>
      <point x="312" y="-13" type="line"/>
      <point x="312" y="207" type="line" smooth="yes"/>
      <point x="312" y="220"/>
      <point x="312" y="232"/>
      <point x="314" y="243" type="curve" smooth="yes"/>
      <point x="314" y="253"/>
      <point x="316" y="265"/>
      <point x="319" y="278" type="curve" smooth="yes"/>
      <point x="328" y="322"/>
      <point x="343" y="357"/>
      <point x="365" y="384" type="curve" smooth="yes"/>
      <point x="385" y="410"/>
      <point x="406" y="422"/>
      <point x="427" y="420" type="curve" smooth="yes"/>
      <point x="445" y="418"/>
      <point x="458" y="413"/>
      <point x="467" y="406" type="curve" smooth="yes"/>
      <point x="475" y="398"/>
      <point x="481" y="389"/>
      <point x="485" y="377" type="curve" smooth="yes"/>
      <point x="490" y="363"/>
      <point x="493" y="346"/>
      <point x="495" y="327" type="curve" smooth="yes"/>
      <point x="495" y="307"/>
      <point x="496" y="290"/>
      <point x="496" y="277" type="curve" smooth="yes"/>
      <point x="496" y="-13" type="line"/>
      <point x="599" y="-13" type="line"/>
      <point x="599" y="357" type="line" smooth="yes"/>
      <point x="597" y="411"/>
      <point x="583" y="454"/>
      <point x="555" y="484" type="curve" smooth="yes"/>
      <point x="526" y="513"/>
      <point x="489" y="528"/>
      <point x="445" y="528" type="curve" smooth="yes"/>
      <point x="405" y="528"/>
      <point x="375" y="519"/>
      <point x="353" y="501" type="curve" smooth="yes"/>
      <point x="331" y="483"/>
      <point x="317" y="468"/>
      <point x="312" y="457" type="curve"/>
      <point x="312" y="517" type="line"/>
      <point x="208" y="517" type="line"/>
    </contour>
    <contour>
      <point x="178" y="805" type="line"/>
      <point x="41" y="805" type="line"/>
      <point x="41" y="662" type="line"/>
      <point x="84" y="662" type="line"/>
      <point x="82" y="654"/>
      <point x="81" y="649"/>
      <point x="81" y="648" type="curve" smooth="yes"/>
      <point x="78" y="644"/>
      <point x="74" y="641"/>
      <point x="69" y="637" type="curve" smooth="yes"/>
      <point x="63" y="633"/>
      <point x="49" y="626"/>
      <point x="25" y="616" type="curve"/>
      <point x="82" y="541" type="line"/>
      <point x="106" y="555"/>
      <point x="124" y="566"/>
      <point x="134" y="576" type="curve" smooth="yes"/>
      <point x="144" y="585"/>
      <point x="152" y="596"/>
      <point x="160" y="609" type="curve" smooth="yes"/>
      <point x="167" y="621"/>
      <point x="172" y="636"/>
      <point x="175" y="655" type="curve" smooth="yes"/>
      <point x="177" y="673"/>
      <point x="178" y="689"/>
      <point x="178" y="704" type="curve" smooth="yes"/>
    </contour>
  </outline>
</glyph>
<glyph name="oe" format="2">
  <advance width="762"/>
  <unicode hex="0153"/>
  <outline>
    <contour>
      <point x="733" y="292" type="line" smooth="yes"/>
      <point x="733" y="326"/>
      <point x="729" y="356"/>
      <point x="723" y="384" type="curve" smooth="yes"/>
      <point x="715" y="410"/>
      <point x="704" y="434"/>
      <point x="690" y="456" type="curve" smooth="yes"/>
      <point x="675" y="477"/>
      <point x="656" y="495"/>
      <point x="632" y="509" type="curve" smooth="yes"/>
      <point x="608" y="522"/>
      <point x="580" y="529"/>
      <point x="548" y="529" type="curve" smooth="yes"/>
      <point x="505" y="529"/>
      <point x="469" y="519"/>
      <point x="440" y="501" type="curve" smooth="yes"/>
      <point x="410" y="481"/>
      <point x="392" y="465"/>
      <point x="386" y="453" type="curve"/>
      <point x="380" y="465"/>
      <point x="363" y="480"/>
      <point x="334" y="500" type="curve" smooth="yes"/>
      <point x="304" y="519"/>
      <point x="270" y="529"/>
      <point x="231" y="529" type="curve" smooth="yes"/>
      <point x="195" y="529"/>
      <point x="164" y="521"/>
      <point x="138" y="505" type="curve" smooth="yes"/>
      <point x="111" y="489"/>
      <point x="89" y="468"/>
      <point x="71" y="442" type="curve" smooth="yes"/>
      <point x="53" y="416"/>
      <point x="41" y="387"/>
      <point x="33" y="354" type="curve" smooth="yes"/>
      <point x="24" y="320"/>
      <point x="20" y="286"/>
      <point x="20" y="250" type="curve" smooth="yes"/>
      <point x="20" y="166"/>
      <point x="38" y="99"/>
      <point x="74" y="50" type="curve" smooth="yes"/>
      <point x="110" y="0"/>
      <point x="162" y="-24"/>
      <point x="232" y="-24" type="curve" smooth="yes"/>
      <point x="266" y="-24"/>
      <point x="300" y="-13"/>
      <point x="334" y="8" type="curve" smooth="yes"/>
      <point x="366" y="29"/>
      <point x="386" y="47"/>
      <point x="394" y="62" type="curve"/>
      <point x="407" y="40"/>
      <point x="431" y="20"/>
      <point x="465" y="3" type="curve" smooth="yes"/>
      <point x="498" y="-15"/>
      <point x="538" y="-24"/>
      <point x="584" y="-24" type="curve" smooth="yes"/>
      <point x="606" y="-24"/>
      <point x="627" y="-22"/>
      <point x="648" y="-19" type="curve" smooth="yes"/>
      <point x="668" y="-15"/>
      <point x="692" y="-9"/>
      <point x="720" y="1" type="curve"/>
      <point x="720" y="97" type="line"/>
      <point x="682" y="85"/>
      <point x="654" y="78"/>
      <point x="638" y="76" type="curve" smooth="yes"/>
      <point x="621" y="74"/>
      <point x="610" y="73"/>
      <point x="604" y="73" type="curve" smooth="yes"/>
      <point x="552" y="73"/>
      <point x="512" y="86"/>
      <point x="485" y="112" type="curve" smooth="yes"/>
      <point x="457" y="137"/>
      <point x="442" y="174"/>
      <point x="438" y="222" type="curve"/>
      <point x="733" y="222" type="line"/>
    </contour>
    <contour>
      <point x="134" y="250" type="curve" smooth="yes"/>
      <point x="134" y="275"/>
      <point x="136" y="299"/>
      <point x="141" y="323" type="curve" smooth="yes"/>
      <point x="145" y="346"/>
      <point x="151" y="366"/>
      <point x="159" y="382" type="curve" smooth="yes"/>
      <point x="168" y="398"/>
      <point x="179" y="410"/>
      <point x="191" y="419" type="curve" smooth="yes"/>
      <point x="202" y="427"/>
      <point x="215" y="432"/>
      <point x="230" y="432" type="curve" smooth="yes"/>
      <point x="246" y="432"/>
      <point x="261" y="427"/>
      <point x="274" y="419" type="curve" smooth="yes"/>
      <point x="286" y="409"/>
      <point x="297" y="396"/>
      <point x="305" y="380" type="curve" smooth="yes"/>
      <point x="313" y="364"/>
      <point x="319" y="344"/>
      <point x="323" y="322" type="curve" smooth="yes"/>
      <point x="327" y="298"/>
      <point x="329" y="275"/>
      <point x="329" y="251" type="curve" smooth="yes"/>
      <point x="329" y="226"/>
      <point x="327" y="202"/>
      <point x="323" y="180" type="curve" smooth="yes"/>
      <point x="319" y="157"/>
      <point x="313" y="138"/>
      <point x="305" y="122" type="curve" smooth="yes"/>
      <point x="297" y="106"/>
      <point x="287" y="94"/>
      <point x="276" y="86" type="curve" smooth="yes"/>
      <point x="264" y="77"/>
      <point x="249" y="73"/>
      <point x="233" y="73" type="curve" smooth="yes"/>
      <point x="217" y="73"/>
      <point x="203" y="77"/>
      <point x="192" y="86" type="curve" smooth="yes"/>
      <point x="180" y="94"/>
      <point x="169" y="105"/>
      <point x="160" y="121" type="curve" smooth="yes"/>
      <point x="152" y="137"/>
      <point x="145" y="156"/>
      <point x="141" y="179" type="curve" smooth="yes"/>
      <point x="136" y="201"/>
      <point x="134" y="224"/>
    </contour>
    <contour>
      <point x="543" y="432" type="curve" smooth="yes"/>
      <point x="557" y="432"/>
      <point x="569" y="428"/>
      <point x="579" y="422" type="curve" smooth="yes"/>
      <point x="588" y="415"/>
      <point x="596" y="406"/>
      <point x="602" y="396" type="curve" smooth="yes"/>
      <point x="607" y="384"/>
      <point x="611" y="368"/>
      <point x="615" y="348" type="curve" smooth="yes"/>
      <point x="617" y="328"/>
      <point x="619" y="318"/>
      <point x="619" y="318" type="curve"/>
      <point x="437" y="318" type="line"/>
      <point x="439" y="348"/>
      <point x="450" y="374"/>
      <point x="470" y="398" type="curve" smooth="yes"/>
      <point x="490" y="420"/>
      <point x="514" y="432"/>
    </contour>
  </outline>
</glyph>
<glyph name="Theta" format="2">
  <advance width="642"/>
  <unicode hex="0398"/>
  <outline>
    <contour>
      <point x="315" y="-24" type="curve" smooth="yes"/>
      <point x="363" y="-24"/>
      <point x="406" y="-13"/>
      <point x="443" y="9" type="curve" smooth="yes"/>
      <point x="479" y="30"/>
      <point x="510" y="59"/>
      <point x="535" y="95" type="curve" smooth="yes"/>
      <point x="559" y="131"/>
      <point x="578" y="172"/>
      <point x="591" y="217" type="curve" smooth="yes"/>
      <point x="603" y="261"/>
      <point x="609" y="309"/>
      <point x="609" y="360" type="curve" smooth="yes"/>
      <point x="609" y="412"/>
      <point x="603" y="460"/>
      <point x="591" y="505" type="curve" smooth="yes"/>
      <point x="578" y="549"/>
      <point x="559" y="589"/>
      <point x="535" y="625" type="curve" smooth="yes"/>
      <point x="510" y="660"/>
      <point x="479" y="688"/>
      <point x="443" y="709" type="curve" smooth="yes"/>
      <point x="405" y="729"/>
      <point x="363" y="739"/>
      <point x="315" y="739" type="curve" smooth="yes"/>
      <point x="267" y="739"/>
      <point x="224" y="728"/>
      <point x="187" y="707" type="curve" smooth="yes"/>
      <point x="149" y="685"/>
      <point x="119" y="656"/>
      <point x="95" y="621" type="curve" smooth="yes"/>
      <point x="70" y="585"/>
      <point x="52" y="545"/>
      <point x="41" y="501" type="curve" smooth="yes"/>
      <point x="29" y="456"/>
      <point x="23" y="409"/>
      <point x="23" y="359" type="curve" smooth="yes"/>
      <point x="23" y="305"/>
      <point x="29" y="256"/>
      <point x="41" y="212" type="curve" smooth="yes"/>
      <point x="52" y="166"/>
      <point x="70" y="126"/>
      <point x="95" y="91" type="curve" smooth="yes"/>
      <point x="119" y="55"/>
      <point x="149" y="27"/>
      <point x="187" y="7" type="curve" smooth="yes"/>
      <point x="223" y="-13"/>
      <point x="266" y="-24"/>
    </contour>
    <contour>
      <point x="139" y="360" type="curve" smooth="yes"/>
      <point x="139" y="400"/>
      <point x="143" y="438"/>
      <point x="151" y="473" type="curve" smooth="yes"/>
      <point x="159" y="507"/>
      <point x="170" y="536"/>
      <point x="185" y="562" type="curve" smooth="yes"/>
      <point x="200" y="586"/>
      <point x="218" y="604"/>
      <point x="240" y="618" type="curve" smooth="yes"/>
      <point x="261" y="631"/>
      <point x="286" y="638"/>
      <point x="314" y="638" type="curve" smooth="yes"/>
      <point x="342" y="638"/>
      <point x="367" y="631"/>
      <point x="389" y="617" type="curve" smooth="yes"/>
      <point x="410" y="602"/>
      <point x="428" y="582"/>
      <point x="444" y="558" type="curve" smooth="yes"/>
      <point x="459" y="532"/>
      <point x="471" y="503"/>
      <point x="480" y="469" type="curve" smooth="yes"/>
      <point x="488" y="435"/>
      <point x="492" y="399"/>
      <point x="492" y="361" type="curve" smooth="yes"/>
      <point x="492" y="319"/>
      <point x="488" y="280"/>
      <point x="480" y="246" type="curve" smooth="yes"/>
      <point x="471" y="211"/>
      <point x="459" y="181"/>
      <point x="445" y="156" type="curve" smooth="yes"/>
      <point x="429" y="130"/>
      <point x="410" y="111"/>
      <point x="389" y="98" type="curve" smooth="yes"/>
      <point x="367" y="84"/>
      <point x="343" y="77"/>
      <point x="315" y="77" type="curve" smooth="yes"/>
      <point x="286" y="77"/>
      <point x="261" y="84"/>
      <point x="241" y="99" type="curve" smooth="yes"/>
      <point x="219" y="113"/>
      <point x="201" y="133"/>
      <point x="185" y="159" type="curve" smooth="yes"/>
      <point x="170" y="186"/>
      <point x="159" y="217"/>
      <point x="151" y="251" type="curve" smooth="yes"/>
      <point x="143" y="285"/>
      <point x="139" y="321"/>
    </contour>
    <contour>
      <point x="177" y="407" type="line"/>
      <point x="177" y="303" type="line"/>
      <point x="458" y="303" type="line"/>
      <point x="458" y="407" type="line"/>
    </contour>
  </outline>
</glyph>
<glyph name="Iota" format="2">
  <advance width="264"/>
  <unicode hex="0399"/>
  <outline>
    <contour>
      <point x="69" y="-13" type="line"/>
      <point x="184" y="-13" type="line"/>
      <point x="184" y="726" type="line"/>
      <point x="69" y="726" type="line"/>
    </contour>
  </outline>
</glyph>
<glyph name="Mu" format="2">
  <advance width="757"/>
  <unicode hex="039C"/>
  <outline>
    <contour>
      <point x="423" y="-13" type="line"/>
      <point x="581" y="491" type="line"/>
      <point x="581" y="-13" type="line"/>
      <point x="686" y="-13" type="line"/>
      <point x="686" y="726" type="line"/>
      <point x="545" y="726" type="line"/>
      <point x="373" y="178" type="line"/>
      <point x="201" y="726" type="line"/>
      <point x="61" y="726" type="line"/>
      <point x="61" y="-13" type="line"/>
      <point x="166" y="-13" type="line"/>
      <point x="166" y="491" type="line"/>
      <point x="323" y="-13" type="line"/>
    </contour>
  </outline>
</glyph>
<glyph name="Rho" format="2">
  <advance width="510"/>
  <unicode hex="03A1"/>
  <outline>
    <contour>
      <point x="177" y="275" type="line"/>
      <point x="239" y="275" type="line" smooth="yes"/>
      <point x="273" y="275"/>
      <point x="304" y="278"/>
      <point x="333" y="286" type="curve" smooth="yes"/>
      <point x="361" y="293"/>
      <point x="388" y="306"/>
      <point x="414" y="324" type="curve" smooth="yes"/>
      <point x="437" y="342"/>
      <point x="456" y="366"/>
      <point x="472" y="396" type="curve" smooth="yes"/>
      <point x="487" y="425"/>
      <point x="495" y="461"/>
      <point x="495" y="505" type="curve" smooth="yes"/>
      <point x="495" y="547"/>
      <point x="487" y="582"/>
      <point x="472" y="611" type="curve" smooth="yes"/>
      <point x="456" y="639"/>
      <point x="436" y="663"/>
      <point x="412" y="681" type="curve" smooth="yes"/>
      <point x="387" y="697"/>
      <point x="360" y="708"/>
      <point x="331" y="716" type="curve" smooth="yes"/>
      <point x="301" y="722"/>
      <point x="270" y="726"/>
      <point x="239" y="726" type="curve" smooth="yes"/>
      <point x="62" y="726" type="line"/>
      <point x="62" y="-13" type="line"/>
      <point x="172" y="-13" type="line"/>
      <point x="172" y="275" type="line"/>
    </contour>
    <contour>
      <point x="172" y="382" type="line"/>
      <point x="172" y="621" type="line"/>
      <point x="243" y="621" type="line" smooth="yes"/>
      <point x="258" y="621"/>
      <point x="274" y="619"/>
      <point x="292" y="615" type="curve" smooth="yes"/>
      <point x="309" y="610"/>
      <point x="324" y="603"/>
      <point x="336" y="595" type="curve" smooth="yes"/>
      <point x="348" y="585"/>
      <point x="358" y="574"/>
      <point x="367" y="560" type="curve" smooth="yes"/>
      <point x="375" y="545"/>
      <point x="380" y="527"/>
      <point x="380" y="505" type="curve" smooth="yes"/>
      <point x="380" y="479"/>
      <point x="376" y="459"/>
      <point x="368" y="444" type="curve" smooth="yes"/>
      <point x="360" y="428"/>
      <point x="349" y="416"/>
      <point x="337" y="406" type="curve" smooth="yes"/>
      <point x="325" y="397"/>
      <point x="312" y="391"/>
      <point x="296" y="388" type="curve" smooth="yes"/>
      <point x="279" y="384"/>
      <point x="260" y="382"/>
      <point x="238" y="382" type="curve" smooth="yes"/>
      <point x="177" y="382" type="line"/>
    </contour>
  </outline>
</glyph>
<glyph name="Tau" format="2">
  <advance width="492"/>
  <unicode hex="03A4"/>
  <outline>
    <contour>
      <point x="191" y="-13" type="line"/>
      <point x="303" y="-13" type="line"/>
      <point x="303" y="621" type="line"/>
      <point x="489" y="621" type="line"/>
      <point x="489" y="726" type="line"/>
      <point x="5" y="726" type="line"/>
      <point x="5" y="621" type="line"/>
      <point x="191" y="621" type="line"/>
    </contour>
  </outline>
</glyph>
<glyph name="Psi" format="2">
  <advance width="611"/>
  <unicode hex="03A8"/>
  <outline>
    <contour>
      <point x="554" y="726" type="line"/>
      <point x="440" y="726" type="line"/>
      <point x="440" y="474" type="line" smooth="yes"/>
      <point x="440" y="449"/>
      <point x="437" y="427"/>
      <point x="433" y="407" type="curve" smooth="yes"/>
      <point x="427" y="386"/>
      <point x="421" y="367"/>
      <point x="413" y="350" type="curve" smooth="yes"/>
      <point x="404" y="333"/>
      <point x="393" y="319"/>
      <point x="380" y="308" type="curve" smooth="yes"/>
      <point x="366" y="296"/>
      <point x="360" y="290"/>
      <point x="361" y="290" type="curve"/>
      <point x="361" y="726" type="line"/>
      <point x="246" y="726" type="line"/>
      <point x="246" y="287" type="line"/>
      <point x="242" y="288"/>
      <point x="233" y="294"/>
      <point x="220" y="306" type="curve" smooth="yes"/>
      <point x="206" y="316"/>
      <point x="195" y="330"/>
      <point x="186" y="348" type="curve" smooth="yes"/>
      <point x="178" y="365"/>
      <point x="172" y="384"/>
      <point x="168" y="405" type="curve" smooth="yes"/>
      <point x="164" y="425"/>
      <point x="162" y="448"/>
      <point x="162" y="474" type="curve" smooth="yes"/>
      <point x="162" y="726" type="line"/>
      <point x="48" y="726" type="line"/>
      <point x="48" y="469" type="line" smooth="yes"/>
      <point x="48" y="438"/>
      <point x="51" y="407"/>
      <point x="57" y="376" type="curve" smooth="yes"/>
      <point x="62" y="344"/>
      <point x="73" y="315"/>
      <point x="91" y="287" type="curve" smooth="yes"/>
      <point x="107" y="258"/>
      <point x="129" y="234"/>
      <point x="158" y="214" type="curve" smooth="yes"/>
      <point x="186" y="194"/>
      <point x="215" y="182"/>
      <point x="246" y="180" type="curve"/>
      <point x="246" y="-13" type="line"/>
      <point x="361" y="-13" type="line"/>
      <point x="361" y="182" type="line"/>
      <point x="388" y="185"/>
      <point x="415" y="197"/>
      <point x="443" y="219" type="curve" smooth="yes"/>
      <point x="470" y="240"/>
      <point x="492" y="264"/>
      <point x="508" y="292" type="curve" smooth="yes"/>
      <point x="524" y="320"/>
      <point x="536" y="349"/>
      <point x="544" y="380" type="curve" smooth="yes"/>
      <point x="550" y="410"/>
      <point x="554" y="440"/>
      <point x="554" y="468" type="curve" smooth="yes"/>
    </contour>
  </outline>
</glyph>
<glyph name="uni03A9" format="2">
  <advance width="621"/>
  <unicode hex="03A9"/>
  <outline>
    <contour>
      <point x="282" y="198" type="line"/>
      <point x="241" y="212"/>
      <point x="210" y="237"/>
      <point x="189" y="274" type="curve" smooth="yes"/>
      <point x="167" y="310"/>
      <point x="156" y="358"/>
      <point x="156" y="420" type="curve" smooth="yes"/>
      <point x="156" y="456"/>
      <point x="160" y="487"/>
      <point x="168" y="514" type="curve" smooth="yes"/>
      <point x="176" y="540"/>
      <point x="187" y="563"/>
      <point x="203" y="583" type="curve" smooth="yes"/>
      <point x="216" y="601"/>
      <point x="232" y="615"/>
      <point x="250" y="625" type="curve" smooth="yes"/>
      <point x="268" y="633"/>
      <point x="286" y="638"/>
      <point x="304" y="638" type="curve" smooth="yes"/>
      <point x="322" y="638"/>
      <point x="341" y="633"/>
      <point x="360" y="624" type="curve" smooth="yes"/>
      <point x="378" y="614"/>
      <point x="393" y="600"/>
      <point x="407" y="582" type="curve" smooth="yes"/>
      <point x="421" y="562"/>
      <point x="433" y="540"/>
      <point x="443" y="514" type="curve" smooth="yes"/>
      <point x="451" y="487"/>
      <point x="456" y="456"/>
      <point x="456" y="421" type="curve" smooth="yes"/>
      <point x="456" y="359"/>
      <point x="444" y="309"/>
      <point x="422" y="273" type="curve" smooth="yes"/>
      <point x="398" y="236"/>
      <point x="366" y="211"/>
      <point x="326" y="199" type="curve"/>
      <point x="326" y="-13" type="line"/>
      <point x="554" y="-13" type="line"/>
      <point x="554" y="92" type="line"/>
      <point x="438" y="92" type="line"/>
      <point x="438" y="135" type="line"/>
      <point x="473" y="156"/>
      <point x="504" y="192"/>
      <point x="532" y="242" type="curve" smooth="yes"/>
      <point x="559" y="291"/>
      <point x="573" y="350"/>
      <point x="573" y="420" type="curve" smooth="yes"/>
      <point x="573" y="468"/>
      <point x="565" y="512"/>
      <point x="551" y="551" type="curve" smooth="yes"/>
      <point x="535" y="589"/>
      <point x="516" y="621"/>
      <point x="494" y="649" type="curve" smooth="yes"/>
      <point x="469" y="677"/>
      <point x="441" y="700"/>
      <point x="409" y="716" type="curve" smooth="yes"/>
      <point x="376" y="731"/>
      <point x="341" y="739"/>
      <point x="305" y="739" type="curve" smooth="yes"/>
      <point x="269" y="739"/>
      <point x="235" y="731"/>
      <point x="203" y="716" type="curve" smooth="yes"/>
      <point x="170" y="700"/>
      <point x="142" y="677"/>
      <point x="118" y="649" type="curve" smooth="yes"/>
      <point x="94" y="621"/>
      <point x="75" y="588"/>
      <point x="61" y="550" type="curve" smooth="yes"/>
      <point x="47" y="511"/>
      <point x="40" y="467"/>
      <point x="40" y="419" type="curve" smooth="yes"/>
      <point x="40" y="351"/>
      <point x="52" y="292"/>
      <point x="78" y="243" type="curve" smooth="yes"/>
      <point x="102" y="193"/>
      <point x="133" y="158"/>
      <point x="169" y="137" type="curve"/>
      <point x="169" y="92" type="line"/>
      <point x="53" y="92" type="line"/>
      <point x="53" y="-13" type="line"/>
      <point x="282" y="-13" type="line"/>
    </contour>
  </outline>
</glyph>
<glyph name="delta" format="2">
  <advance width="479"/>
  <unicode hex="03B4"/>
  <outline>
    <contour>
      <point x="234" y="-24" type="curve" smooth="yes"/>
      <point x="302" y="-24"/>
      <point x="358" y="0"/>
      <point x="402" y="47" type="curve" smooth="yes"/>
      <point x="444" y="94"/>
      <point x="466" y="158"/>
      <point x="466" y="239" type="curve" smooth="yes"/>
      <point x="466" y="281"/>
      <point x="459" y="319"/>
      <point x="447" y="353" type="curve" smooth="yes"/>
      <point x="433" y="387"/>
      <point x="416" y="415"/>
      <point x="396" y="439" type="curve" smooth="yes"/>
      <point x="247" y="621" type="line"/>
      <point x="432" y="621" type="line"/>
      <point x="432" y="726" type="line"/>
      <point x="89" y="726" type="line"/>
      <point x="89" y="633" type="line"/>
      <point x="199" y="504" type="line"/>
      <point x="191" y="504"/>
      <point x="172" y="497"/>
      <point x="141" y="483" type="curve" smooth="yes"/>
      <point x="109" y="468"/>
      <point x="84" y="448"/>
      <point x="65" y="424" type="curve" smooth="yes"/>
      <point x="45" y="400"/>
      <point x="31" y="373"/>
      <point x="21" y="341" type="curve" smooth="yes"/>
      <point x="10" y="308"/>
      <point x="5" y="274"/>
      <point x="5" y="238" type="curve" smooth="yes"/>
      <point x="5" y="153"/>
      <point x="26" y="88"/>
      <point x="69" y="44" type="curve" smooth="yes"/>
      <point x="111" y="-1"/>
      <point x="166" y="-24"/>
    </contour>
    <contour>
      <point x="119" y="238" type="curve" smooth="yes"/>
      <point x="119" y="287"/>
      <point x="128" y="328"/>
      <point x="148" y="360" type="curve" smooth="yes"/>
      <point x="167" y="392"/>
      <point x="195" y="408"/>
      <point x="231" y="408" type="curve" smooth="yes"/>
      <point x="249" y="408"/>
      <point x="266" y="403"/>
      <point x="280" y="395" type="curve" smooth="yes"/>
      <point x="294" y="386"/>
      <point x="306" y="374"/>
      <point x="317" y="360" type="curve" smooth="yes"/>
      <point x="327" y="344"/>
      <point x="335" y="326"/>
      <point x="341" y="305" type="curve" smooth="yes"/>
      <point x="347" y="283"/>
      <point x="350" y="261"/>
      <point x="350" y="239" type="curve" smooth="yes"/>
      <point x="350" y="215"/>
      <point x="347" y="193"/>
      <point x="341" y="172" type="curve" smooth="yes"/>
      <point x="335" y="150"/>
      <point x="327" y="133"/>
      <point x="318" y="119" type="curve" smooth="yes"/>
      <point x="307" y="104"/>
      <point x="295" y="93"/>
      <point x="282" y="85" type="curve" smooth="yes"/>
      <point x="268" y="77"/>
      <point x="253" y="73"/>
      <point x="235" y="73" type="curve" smooth="yes"/>
      <point x="217" y="73"/>
      <point x="201" y="77"/>
      <point x="187" y="85" type="curve" smooth="yes"/>
      <point x="172" y="92"/>
      <point x="160" y="103"/>
      <point x="150" y="118" type="curve" smooth="yes"/>
      <point x="139" y="132"/>
      <point x="131" y="149"/>
      <point x="127" y="171" type="curve" smooth="yes"/>
      <point x="121" y="191"/>
      <point x="119" y="214"/>
    </contour>
  </outline>
</glyph>
<glyph name="epsilon" format="2">
  <advance width="421"/>
  <unicode hex="03B5"/>
  <outline>
    <contour>
      <point x="399" y="372" type="line"/>
      <point x="399" y="420"/>
      <point x="382" y="458"/>
      <point x="350" y="487" type="curve" smooth="yes"/>
      <point x="317" y="515"/>
      <point x="272" y="529"/>
      <point x="216" y="529" type="curve" smooth="yes"/>
      <point x="194" y="529"/>
      <point x="173" y="525"/>
      <point x="151" y="519" type="curve" smooth="yes"/>
      <point x="129" y="512"/>
      <point x="109" y="502"/>
      <point x="93" y="490" type="curve" smooth="yes"/>
      <point x="75" y="478"/>
      <point x="61" y="463"/>
      <point x="51" y="443" type="curve" smooth="yes"/>
      <point x="40" y="422"/>
      <point x="35" y="400"/>
      <point x="35" y="378" type="curve" smooth="yes"/>
      <point x="35" y="357"/>
      <point x="38" y="338"/>
      <point x="46" y="322" type="curve" smooth="yes"/>
      <point x="52" y="305"/>
      <point x="61" y="291"/>
      <point x="71" y="281" type="curve" smooth="yes"/>
      <point x="77" y="275"/>
      <point x="83" y="270"/>
      <point x="90" y="266" type="curve"/>
      <point x="83" y="262"/>
      <point x="75" y="256"/>
      <point x="67" y="249" type="curve" smooth="yes"/>
      <point x="56" y="237"/>
      <point x="47" y="223"/>
      <point x="39" y="205" type="curve" smooth="yes"/>
      <point x="31" y="187"/>
      <point x="27" y="165"/>
      <point x="27" y="139" type="curve" smooth="yes"/>
      <point x="27" y="117"/>
      <point x="31" y="97"/>
      <point x="41" y="77" type="curve" smooth="yes"/>
      <point x="49" y="56"/>
      <point x="62" y="38"/>
      <point x="80" y="23" type="curve" smooth="yes"/>
      <point x="96" y="9"/>
      <point x="117" y="-2"/>
      <point x="141" y="-11" type="curve" smooth="yes"/>
      <point x="164" y="-19"/>
      <point x="189" y="-24"/>
      <point x="216" y="-24" type="curve" smooth="yes"/>
      <point x="268" y="-24"/>
      <point x="312" y="-11"/>
      <point x="350" y="13" type="curve" smooth="yes"/>
      <point x="387" y="37"/>
      <point x="406" y="77"/>
      <point x="406" y="135" type="curve"/>
      <point x="292" y="135" type="line"/>
      <point x="292" y="112"/>
      <point x="286" y="96"/>
      <point x="274" y="87" type="curve" smooth="yes"/>
      <point x="261" y="77"/>
      <point x="242" y="73"/>
      <point x="218" y="73" type="curve" smooth="yes"/>
      <point x="193" y="73"/>
      <point x="173" y="79"/>
      <point x="159" y="91" type="curve" smooth="yes"/>
      <point x="144" y="103"/>
      <point x="137" y="120"/>
      <point x="137" y="143" type="curve" smooth="yes"/>
      <point x="137" y="167"/>
      <point x="145" y="185"/>
      <point x="162" y="198" type="curve" smooth="yes"/>
      <point x="178" y="210"/>
      <point x="200" y="216"/>
      <point x="230" y="216" type="curve" smooth="yes"/>
      <point x="282" y="216" type="line"/>
      <point x="282" y="312" type="line"/>
      <point x="230" y="312" type="line" smooth="yes"/>
      <point x="196" y="312"/>
      <point x="173" y="317"/>
      <point x="161" y="328" type="curve" smooth="yes"/>
      <point x="149" y="338"/>
      <point x="143" y="353"/>
      <point x="143" y="374" type="curve" smooth="yes"/>
      <point x="143" y="390"/>
      <point x="149" y="404"/>
      <point x="163" y="416" type="curve" smooth="yes"/>
      <point x="175" y="426"/>
      <point x="192" y="432"/>
      <point x="213" y="432" type="curve" smooth="yes"/>
      <point x="236" y="432"/>
      <point x="255" y="428"/>
      <point x="269" y="421" type="curve" smooth="yes"/>
      <point x="283" y="413"/>
      <point x="290" y="397"/>
      <point x="290" y="372" type="curve"/>
    </contour>
  </outline>
</glyph>
<glyph name="eta" format="2">
  <advance width="487"/>
  <unicode hex="03B7"/>
  <outline>
    <contour>
      <point x="44" y="-13" type="line"/>
      <point x="149" y="-13" type="line"/>
      <point x="149" y="208" type="line" smooth="yes"/>
      <point x="149" y="221"/>
      <point x="149" y="233"/>
      <point x="150" y="244" type="curve" smooth="yes"/>
      <point x="150" y="254"/>
      <point x="152" y="266"/>
      <point x="154" y="280" type="curve" smooth="yes"/>
      <point x="164" y="323"/>
      <point x="179" y="358"/>
      <point x="200" y="385" type="curve" smooth="yes"/>
      <point x="220" y="411"/>
      <point x="241" y="423"/>
      <point x="261" y="421" type="curve" smooth="yes"/>
      <point x="280" y="419"/>
      <point x="294" y="414"/>
      <point x="303" y="407" type="curve" smooth="yes"/>
      <point x="311" y="399"/>
      <point x="317" y="389"/>
      <point x="321" y="377" type="curve" smooth="yes"/>
      <point x="326" y="363"/>
      <point x="329" y="348"/>
      <point x="330" y="332" type="curve" smooth="yes"/>
      <point x="330" y="314"/>
      <point x="331" y="296"/>
      <point x="331" y="277" type="curve" smooth="yes"/>
      <point x="331" y="-168" type="line"/>
      <point x="437" y="-168" type="line"/>
      <point x="437" y="358" type="line"/>
      <point x="433" y="412"/>
      <point x="418" y="455"/>
      <point x="390" y="485" type="curve" smooth="yes"/>
      <point x="361" y="514"/>
      <point x="324" y="529"/>
      <point x="279" y="529" type="curve" smooth="yes"/>
      <point x="246" y="529"/>
      <point x="218" y="520"/>
      <point x="194" y="504" type="curve" smooth="yes"/>
      <point x="169" y="487"/>
      <point x="154" y="472"/>
      <point x="149" y="460" type="curve"/>
      <point x="149" y="517" type="line"/>
      <point x="44" y="517" type="line"/>
    </contour>
  </outline>
</glyph>
<glyph name="sigma" format="2">
  <advance width="532"/>
  <unicode hex="03C3"/>
  <outline>
    <contour>
      <point x="249" y="-24" type="curve" smooth="yes"/>
      <point x="285" y="-24"/>
      <point x="318" y="-17"/>
      <point x="346" y="-3" type="curve" smooth="yes"/>
      <point x="374" y="11"/>
      <point x="398" y="30"/>
      <point x="418" y="54" type="curve" smooth="yes"/>
      <point x="436" y="78"/>
      <point x="450" y="106"/>
      <point x="462" y="140" type="curve" smooth="yes"/>
      <point x="473" y="172"/>
      <point x="479" y="208"/>
      <point x="479" y="246" type="curve" smooth="yes"/>
      <point x="479" y="286"/>
      <point x="472" y="324"/>
      <point x="460" y="361" type="curve" smooth="yes"/>
      <point x="446" y="397"/>
      <point x="439" y="416"/>
      <point x="437" y="420" type="curve"/>
      <point x="524" y="420" type="line"/>
      <point x="524" y="517" type="line"/>
      <point x="250" y="517" type="line" smooth="yes"/>
      <point x="212" y="516"/>
      <point x="178" y="509"/>
      <point x="149" y="495" type="curve" smooth="yes"/>
      <point x="119" y="480"/>
      <point x="94" y="461"/>
      <point x="75" y="437" type="curve" smooth="yes"/>
      <point x="55" y="413"/>
      <point x="41" y="384"/>
      <point x="33" y="351" type="curve" smooth="yes"/>
      <point x="24" y="317"/>
      <point x="20" y="282"/>
      <point x="20" y="245" type="curve" smooth="yes"/>
      <point x="20" y="207"/>
      <point x="25" y="171"/>
      <point x="36" y="137" type="curve" smooth="yes"/>
      <point x="46" y="102"/>
      <point x="61" y="73"/>
      <point x="81" y="50" type="curve" smooth="yes"/>
      <point x="101" y="26"/>
      <point x="126" y="7"/>
      <point x="155" y="-5" type="curve" smooth="yes"/>
      <point x="183" y="-17"/>
      <point x="214" y="-24"/>
    </contour>
    <contour>
      <point x="134" y="245" type="curve" smooth="yes"/>
      <point x="134" y="265"/>
      <point x="136" y="287"/>
      <point x="141" y="311" type="curve" smooth="yes"/>
      <point x="145" y="333"/>
      <point x="152" y="353"/>
      <point x="161" y="369" type="curve" smooth="yes"/>
      <point x="170" y="383"/>
      <point x="183" y="396"/>
      <point x="199" y="406" type="curve" smooth="yes"/>
      <point x="214" y="415"/>
      <point x="231" y="420"/>
      <point x="250" y="420" type="curve" smooth="yes"/>
      <point x="273" y="418"/>
      <point x="291" y="413"/>
      <point x="305" y="404" type="curve" smooth="yes"/>
      <point x="317" y="394"/>
      <point x="328" y="381"/>
      <point x="338" y="365" type="curve" smooth="yes"/>
      <point x="346" y="349"/>
      <point x="352" y="331"/>
      <point x="358" y="309" type="curve" smooth="yes"/>
      <point x="362" y="286"/>
      <point x="365" y="265"/>
      <point x="365" y="246" type="curve" smooth="yes"/>
      <point x="365" y="227"/>
      <point x="362" y="206"/>
      <point x="358" y="182" type="curve" smooth="yes"/>
      <point x="352" y="158"/>
      <point x="345" y="138"/>
      <point x="336" y="122" type="curve" smooth="yes"/>
      <point x="326" y="106"/>
      <point x="315" y="94"/>
      <point x="301" y="86" type="curve" smooth="yes"/>
      <point x="287" y="77"/>
      <point x="270" y="73"/>
      <point x="250" y="73" type="curve" smooth="yes"/>
      <point x="229" y="73"/>
      <point x="211" y="77"/>
      <point x="197" y="86" type="curve" smooth="yes"/>
      <point x="182" y="94"/>
      <point x="170" y="106"/>
      <point x="161" y="121" type="curve" smooth="yes"/>
      <point x="152" y="136"/>
      <point x="145" y="155"/>
      <point x="141" y="178" type="curve" smooth="yes"/>
      <point x="136" y="200"/>
      <point x="134" y="222"/>
    </contour>
  </outline>
</glyph>
<glyph name="psi" format="2">
  <advance width="611"/>
  <unicode hex="03C8"/>
  <outline>
    <contour>
      <point x="554" y="517" type="line"/>
      <point x="440" y="517" type="line"/>
      <point x="440" y="282" type="line" smooth="yes"/>
      <point x="440" y="257"/>
      <point x="437" y="235"/>
      <point x="433" y="215" type="curve" smooth="yes"/>
      <point x="427" y="195"/>
      <point x="421" y="176"/>
      <point x="413" y="158" type="curve" smooth="yes"/>
      <point x="404" y="142"/>
      <point x="393" y="128"/>
      <point x="380" y="117" type="curve" smooth="yes"/>
      <point x="366" y="105"/>
      <point x="360" y="99"/>
      <point x="361" y="99" type="curve"/>
      <point x="361" y="517" type="line"/>
      <point x="246" y="517" type="line"/>
      <point x="246" y="95" type="line"/>
      <point x="242" y="96"/>
      <point x="233" y="102"/>
      <point x="220" y="114" type="curve" smooth="yes"/>
      <point x="206" y="124"/>
      <point x="195" y="138"/>
      <point x="186" y="156" type="curve" smooth="yes"/>
      <point x="178" y="173"/>
      <point x="172" y="192"/>
      <point x="168" y="213" type="curve" smooth="yes"/>
      <point x="164" y="233"/>
      <point x="162" y="256"/>
      <point x="162" y="282" type="curve" smooth="yes"/>
      <point x="162" y="517" type="line"/>
      <point x="48" y="517" type="line"/>
      <point x="48" y="277" type="line" smooth="yes"/>
      <point x="48" y="246"/>
      <point x="51" y="215"/>
      <point x="57" y="184" type="curve" smooth="yes"/>
      <point x="62" y="152"/>
      <point x="73" y="123"/>
      <point x="91" y="95" type="curve" smooth="yes"/>
      <point x="107" y="66"/>
      <point x="129" y="42"/>
      <point x="158" y="22" type="curve" smooth="yes"/>
      <point x="186" y="2"/>
      <point x="215" y="-9"/>
      <point x="246" y="-12" type="curve"/>
      <point x="246" y="-168" type="line"/>
      <point x="361" y="-168" type="line"/>
      <point x="361" y="-10" type="line"/>
      <point x="388" y="-6"/>
      <point x="415" y="5"/>
      <point x="443" y="27" type="curve" smooth="yes"/>
      <point x="470" y="48"/>
      <point x="492" y="72"/>
      <point x="508" y="100" type="curve" smooth="yes"/>
      <point x="524" y="128"/>
      <point x="536" y="157"/>
      <point x="544" y="188" type="curve" smooth="yes"/>
      <point x="550" y="218"/>
      <point x="554" y="248"/>
      <point x="554" y="276" type="curve" smooth="yes"/>
    </contour>
  </outline>
</glyph>
<glyph name="uni0401" format="2">
  <advance width="480"/>
  <unicode hex="0401"/>
  <outline>
    <contour>
      <point x="64" y="-13" type="line"/>
      <point x="449" y="-13" type="line"/>
      <point x="449" y="92" type="line"/>
      <point x="174" y="92" type="line"/>
      <point x="174" y="320" type="line"/>
      <point x="430" y="320" type="line"/>
      <point x="430" y="424" type="line"/>
      <point x="174" y="424" type="line"/>
      <point x="174" y="617" type="line"/>
      <point x="441" y="617" type="line"/>
      <point x="441" y="722" type="line"/>
      <point x="408" y="722" type="line"/>
      <point x="408" y="835" type="line"/>
      <point x="288" y="835" type="line"/>
      <point x="288" y="722" type="line"/>
      <point x="230" y="722" type="line"/>
      <point x="230" y="835" type="line"/>
      <point x="110" y="835" type="line"/>
      <point x="110" y="722" type="line"/>
      <point x="64" y="722" type="line"/>
    </contour>
  </outline>
</glyph>
<glyph name="uni041E" format="2">
  <advance width="660"/>
  <unicode hex="041E"/>
  <outline>
    <contour>
      <point x="329" y="-24" type="curve" smooth="yes"/>
      <point x="381" y="-24"/>
      <point x="426" y="-13"/>
      <point x="465" y="9" type="curve" smooth="yes"/>
      <point x="503" y="30"/>
      <point x="534" y="59"/>
      <point x="560" y="95" type="curve" smooth="yes"/>
      <point x="584" y="131"/>
      <point x="601" y="172"/>
      <point x="613" y="217" type="curve" smooth="yes"/>
      <point x="624" y="261"/>
      <point x="630" y="308"/>
      <point x="630" y="359" type="curve" smooth="yes"/>
      <point x="630" y="411"/>
      <point x="623" y="459"/>
      <point x="611" y="505" type="curve" smooth="yes"/>
      <point x="597" y="549"/>
      <point x="579" y="589"/>
      <point x="555" y="624" type="curve" smooth="yes"/>
      <point x="529" y="659"/>
      <point x="497" y="687"/>
      <point x="460" y="708" type="curve" smooth="yes"/>
      <point x="422" y="728"/>
      <point x="378" y="739"/>
      <point x="329" y="739" type="curve" smooth="yes"/>
      <point x="279" y="739"/>
      <point x="236" y="728"/>
      <point x="199" y="706" type="curve" smooth="yes"/>
      <point x="161" y="684"/>
      <point x="128" y="655"/>
      <point x="102" y="620" type="curve" smooth="yes"/>
      <point x="77" y="584"/>
      <point x="59" y="544"/>
      <point x="47" y="500" type="curve" smooth="yes"/>
      <point x="34" y="455"/>
      <point x="28" y="408"/>
      <point x="28" y="358" type="curve" smooth="yes"/>
      <point x="28" y="304"/>
      <point x="34" y="255"/>
      <point x="47" y="211" type="curve" smooth="yes"/>
      <point x="59" y="165"/>
      <point x="77" y="125"/>
      <point x="103" y="91" type="curve" smooth="yes"/>
      <point x="129" y="55"/>
      <point x="161" y="27"/>
      <point x="199" y="7" type="curve" smooth="yes"/>
      <point x="236" y="-13"/>
      <point x="279" y="-24"/>
    </contour>
    <contour>
      <point x="142" y="359" type="curve" smooth="yes"/>
      <point x="142" y="399"/>
      <point x="146" y="437"/>
      <point x="156" y="472" type="curve" smooth="yes"/>
      <point x="165" y="506"/>
      <point x="178" y="535"/>
      <point x="194" y="559" type="curve" smooth="yes"/>
      <point x="210" y="583"/>
      <point x="230" y="603"/>
      <point x="253" y="617" type="curve" smooth="yes"/>
      <point x="275" y="630"/>
      <point x="300" y="637"/>
      <point x="328" y="638" type="curve" smooth="yes"/>
      <point x="358" y="638"/>
      <point x="385" y="631"/>
      <point x="408" y="617" type="curve" smooth="yes"/>
      <point x="430" y="602"/>
      <point x="450" y="582"/>
      <point x="466" y="557" type="curve" smooth="yes"/>
      <point x="482" y="532"/>
      <point x="494" y="503"/>
      <point x="503" y="469" type="curve" smooth="yes"/>
      <point x="511" y="434"/>
      <point x="515" y="398"/>
      <point x="515" y="360" type="curve" smooth="yes"/>
      <point x="515" y="318"/>
      <point x="511" y="280"/>
      <point x="503" y="246" type="curve" smooth="yes"/>
      <point x="494" y="211"/>
      <point x="482" y="181"/>
      <point x="467" y="156" type="curve" smooth="yes"/>
      <point x="451" y="131"/>
      <point x="431" y="112"/>
      <point x="409" y="98" type="curve" smooth="yes"/>
      <point x="386" y="84"/>
      <point x="359" y="77"/>
      <point x="329" y="77" type="curve" smooth="yes"/>
      <point x="297" y="77"/>
      <point x="270" y="84"/>
      <point x="248" y="99" type="curve" smooth="yes"/>
      <point x="225" y="113"/>
      <point x="206" y="133"/>
      <point x="191" y="159" type="curve" smooth="yes"/>
      <point x="175" y="186"/>
      <point x="163" y="217"/>
      <point x="155" y="251" type="curve" smooth="yes"/>
      <point x="146" y="284"/>
      <point x="142" y="320"/>
    </contour>
  </outline>
</glyph>
<glyph name="uni0420" format="2">
  <advance width="510"/>
  <unicode hex="0420"/>
  <outline>
    <contour>
      <point x="181" y="275" type="line"/>
      <point x="230" y="275" type="line" smooth="yes"/>
      <point x="263" y="275"/>
      <point x="294" y="278"/>
      <point x="323" y="286" type="curve" smooth="yes"/>
      <point x="351" y="293"/>
      <point x="378" y="306"/>
      <point x="404" y="324" type="curve" smooth="yes"/>
      <point x="427" y="342"/>
      <point x="446" y="366"/>
      <point x="462" y="396" type="curve" smooth="yes"/>
      <point x="476" y="425"/>
      <point x="484" y="461"/>
      <point x="484" y="505" type="curve" smooth="yes"/>
      <point x="484" y="547"/>
      <point x="476" y="582"/>
      <point x="462" y="611" type="curve" smooth="yes"/>
      <point x="446" y="639"/>
      <point x="426" y="663"/>
      <point x="402" y="681" type="curve" smooth="yes"/>
      <point x="377" y="697"/>
      <point x="350" y="708"/>
      <point x="321" y="716" type="curve" smooth="yes"/>
      <point x="291" y="722"/>
      <point x="260" y="726"/>
      <point x="230" y="726" type="curve" smooth="yes"/>
      <point x="53" y="726" type="line"/>
      <point x="53" y="-13" type="line"/>
      <point x="161" y="-13" type="line"/>
      <point x="161" y="275" type="line"/>
    </contour>
    <contour>
      <point x="161" y="382" type="line"/>
      <point x="161" y="621" type="line"/>
      <point x="234" y="621" type="line" smooth="yes"/>
      <point x="249" y="621"/>
      <point x="265" y="619"/>
      <point x="283" y="615" type="curve" smooth="yes"/>
      <point x="300" y="610"/>
      <point x="315" y="603"/>
      <point x="327" y="595" type="curve" smooth="yes"/>
      <point x="339" y="585"/>
      <point x="349" y="574"/>
      <point x="358" y="560" type="curve" smooth="yes"/>
      <point x="366" y="545"/>
      <point x="371" y="527"/>
      <point x="371" y="505" type="curve" smooth="yes"/>
      <point x="371" y="479"/>
      <point x="367" y="459"/>
      <point x="359" y="444" type="curve" smooth="yes"/>
      <point x="351" y="428"/>
      <point x="340" y="416"/>
      <point x="328" y="406" type="curve" smooth="yes"/>
      <point x="316" y="397"/>
      <point x="303" y="391"/>
      <point x="287" y="388" type="curve" smooth="yes"/>
      <point x="270" y="384"/>
      <point x="250" y="382"/>
      <point x="228" y="382" type="curve" smooth="yes"/>
      <point x="181" y="382" type="line"/>
    </contour>
  </outline>
</glyph>
<glyph name="uni0423" format="2">
  <advance width="526"/>
  <unicode hex="0423"/>
  <outline>
    <contour>
      <point x="268" y="383" type="line"/>
      <point x="119" y="726" type="line"/>
      <point x="-2" y="726" type="line"/>
      <point x="208" y="242" type="line"/>
      <point x="104" y="-13" type="line"/>
      <point x="223" y="-13" type="line"/>
      <point x="528" y="726" type="line"/>
      <point x="411" y="726" type="line"/>
    </contour>
  </outline>
</glyph>
<glyph name="uni042D" format="2">
  <advance width="581"/>
  <unicode hex="042D"/>
  <outline>
    <contour>
      <point x="432" y="302" type="line"/>
      <point x="431" y="290"/>
      <point x="427" y="270"/>
      <point x="419" y="242" type="curve" smooth="yes"/>
      <point x="410" y="214"/>
      <point x="397" y="187"/>
      <point x="381" y="163" type="curve" smooth="yes"/>
      <point x="365" y="139"/>
      <point x="345" y="120"/>
      <point x="321" y="104" type="curve" smooth="yes"/>
      <point x="296" y="88"/>
      <point x="265" y="79"/>
      <point x="228" y="79" type="curve" smooth="yes"/>
      <point x="200" y="78"/>
      <point x="174" y="81"/>
      <point x="151" y="88" type="curve" smooth="yes"/>
      <point x="127" y="94"/>
      <point x="110" y="103"/>
      <point x="98" y="113" type="curve" smooth="yes"/>
      <point x="94" y="116"/>
      <point x="89" y="120"/>
      <point x="85" y="124" type="curve" smooth="yes"/>
      <point x="79" y="128"/>
      <point x="65" y="141"/>
      <point x="41" y="165" type="curve"/>
      <point x="41" y="25" type="line"/>
      <point x="52" y="19"/>
      <point x="63" y="14"/>
      <point x="74" y="9" type="curve" smooth="yes"/>
      <point x="84" y="3"/>
      <point x="97" y="-1"/>
      <point x="114" y="-7" type="curve" smooth="yes"/>
      <point x="129" y="-11"/>
      <point x="148" y="-15"/>
      <point x="170" y="-19" type="curve" smooth="yes"/>
      <point x="191" y="-22"/>
      <point x="216" y="-24"/>
      <point x="245" y="-24" type="curve" smooth="yes"/>
      <point x="297" y="-24"/>
      <point x="343" y="-12"/>
      <point x="382" y="12" type="curve" smooth="yes"/>
      <point x="420" y="36"/>
      <point x="452" y="67"/>
      <point x="478" y="106" type="curve" smooth="yes"/>
      <point x="503" y="144"/>
      <point x="521" y="185"/>
      <point x="533" y="231" type="curve" smooth="yes"/>
      <point x="544" y="276"/>
      <point x="550" y="322"/>
      <point x="550" y="370" type="curve" smooth="yes"/>
      <point x="550" y="417"/>
      <point x="544" y="462"/>
      <point x="532" y="506" type="curve" smooth="yes"/>
      <point x="519" y="548"/>
      <point x="500" y="587"/>
      <point x="476" y="622" type="curve" smooth="yes"/>
      <point x="450" y="656"/>
      <point x="419" y="685"/>
      <point x="381" y="707" type="curve" smooth="yes"/>
      <point x="343" y="728"/>
      <point x="299" y="739"/>
      <point x="249" y="739" type="curve" smooth="yes"/>
      <point x="201" y="739"/>
      <point x="158" y="727"/>
      <point x="120" y="704" type="curve" smooth="yes"/>
      <point x="81" y="680"/>
      <point x="52" y="647"/>
      <point x="33" y="604" type="curve" smooth="yes"/>
      <point x="27" y="590"/>
      <point x="23" y="574"/>
      <point x="21" y="558" type="curve" smooth="yes"/>
      <point x="18" y="540"/>
      <point x="17" y="520"/>
      <point x="17" y="496" type="curve"/>
      <point x="133" y="496" type="line"/>
      <point x="133" y="526"/>
      <point x="135" y="547"/>
      <point x="140" y="561" type="curve" smooth="yes"/>
      <point x="144" y="574"/>
      <point x="151" y="587"/>
      <point x="161" y="600" type="curve" smooth="yes"/>
      <point x="169" y="611"/>
      <point x="182" y="620"/>
      <point x="200" y="626" type="curve" smooth="yes"/>
      <point x="217" y="632"/>
      <point x="233" y="635"/>
      <point x="249" y="636" type="curve" smooth="yes"/>
      <point x="273" y="636"/>
      <point x="295" y="630"/>
      <point x="317" y="620" type="curve" smooth="yes"/>
      <point x="338" y="608"/>
      <point x="357" y="593"/>
      <point x="374" y="573" type="curve" smooth="yes"/>
      <point x="390" y="550"/>
      <point x="404" y="523"/>
      <point x="416" y="493" type="curve" smooth="yes"/>
      <point x="426" y="462"/>
      <point x="432" y="433"/>
      <point x="434" y="406" type="curve"/>
      <point x="127" y="406" type="line"/>
      <point x="127" y="302" type="line"/>
    </contour>
  </outline>
</glyph>
<glyph name="uni042F" format="2">
  <advance width="537"/>
  <unicode hex="042F"/>
  <outline>
    <contour>
      <point x="352" y="396" type="line"/>
      <point x="307" y="396" type="line" smooth="yes"/>
      <point x="283" y="396"/>
      <point x="262" y="397"/>
      <point x="246" y="401" type="curve" smooth="yes"/>
      <point x="229" y="404"/>
      <point x="215" y="410"/>
      <point x="203" y="420" type="curve" smooth="yes"/>
      <point x="190" y="428"/>
      <point x="180" y="439"/>
      <point x="173" y="453" type="curve" smooth="yes"/>
      <point x="165" y="467"/>
      <point x="161" y="486"/>
      <point x="161" y="512" type="curve" smooth="yes"/>
      <point x="161" y="534"/>
      <point x="164" y="551"/>
      <point x="171" y="565" type="curve" smooth="yes"/>
      <point x="177" y="578"/>
      <point x="187" y="589"/>
      <point x="199" y="597" type="curve" smooth="yes"/>
      <point x="210" y="605"/>
      <point x="223" y="612"/>
      <point x="239" y="616" type="curve" smooth="yes"/>
      <point x="254" y="619"/>
      <point x="270" y="621"/>
      <point x="286" y="621" type="curve" smooth="yes"/>
      <point x="369" y="621" type="line"/>
      <point x="369" y="-13" type="line"/>
      <point x="477" y="-13" type="line"/>
      <point x="477" y="726" type="line"/>
      <point x="290" y="726" type="line" smooth="yes"/>
      <point x="258" y="726"/>
      <point x="229" y="723"/>
      <point x="201" y="717" type="curve" smooth="yes"/>
      <point x="172" y="710"/>
      <point x="146" y="699"/>
      <point x="124" y="684" type="curve" smooth="yes"/>
      <point x="100" y="667"/>
      <point x="81" y="645"/>
      <point x="67" y="618" type="curve" smooth="yes"/>
      <point x="53" y="590"/>
      <point x="46" y="554"/>
      <point x="46" y="512" type="curve" smooth="yes"/>
      <point x="46" y="458"/>
      <point x="58" y="415"/>
      <point x="82" y="385" type="curve" smooth="yes"/>
      <point x="105" y="354"/>
      <point x="124" y="335"/>
      <point x="138" y="329" type="curve"/>
      <point x="134" y="327"/>
      <point x="123" y="312"/>
      <point x="105" y="286" type="curve" smooth="yes"/>
      <point x="85" y="259"/>
      <point x="72" y="224"/>
      <point x="65" y="182" type="curve" smooth="yes"/>
      <point x="29" y="-13" type="line"/>
      <point x="149" y="-13" type="line"/>
      <point x="175" y="144" type="line" smooth="yes"/>
      <point x="181" y="185"/>
      <point x="194" y="220"/>
      <point x="214" y="248" type="curve" smooth="yes"/>
      <point x="232" y="275"/>
      <point x="258" y="289"/>
      <point x="291" y="289" type="curve" smooth="yes"/>
      <point x="352" y="289" type="line"/>
    </contour>
  </outline>
</glyph>
<glyph name="uni043E" format="2">
  <advance width="510"/>
  <unicode hex="043E"/>
  <outline>
    <contour>
      <point x="255" y="-24" type="curve" smooth="yes"/>
      <point x="327" y="-24"/>
      <point x="384" y="1"/>
      <point x="424" y="53" type="curve" smooth="yes"/>
      <point x="464" y="104"/>
      <point x="484" y="170"/>
      <point x="484" y="251" type="curve" smooth="yes"/>
      <point x="484" y="332"/>
      <point x="463" y="399"/>
      <point x="423" y="451" type="curve" smooth="yes"/>
      <point x="382" y="503"/>
      <point x="325" y="529"/>
      <point x="253" y="529" type="curve" smooth="yes"/>
      <point x="214" y="529"/>
      <point x="181" y="521"/>
      <point x="153" y="506" type="curve" smooth="yes"/>
      <point x="124" y="490"/>
      <point x="100" y="469"/>
      <point x="81" y="443" type="curve" smooth="yes"/>
      <point x="61" y="417"/>
      <point x="47" y="388"/>
      <point x="39" y="355" type="curve" smooth="yes"/>
      <point x="30" y="321"/>
      <point x="26" y="286"/>
      <point x="26" y="250" type="curve" smooth="yes"/>
      <point x="26" y="165"/>
      <point x="47" y="98"/>
      <point x="90" y="50" type="curve" smooth="yes"/>
      <point x="132" y="0"/>
      <point x="187" y="-24"/>
    </contour>
    <contour>
      <point x="138" y="250" type="curve" smooth="yes"/>
      <point x="138" y="274"/>
      <point x="140" y="298"/>
      <point x="146" y="322" type="curve" smooth="yes"/>
      <point x="150" y="345"/>
      <point x="157" y="365"/>
      <point x="166" y="381" type="curve" smooth="yes"/>
      <point x="176" y="396"/>
      <point x="187" y="408"/>
      <point x="201" y="418" type="curve" smooth="yes"/>
      <point x="214" y="427"/>
      <point x="231" y="432"/>
      <point x="252" y="432" type="curve" smooth="yes"/>
      <point x="273" y="432"/>
      <point x="291" y="427"/>
      <point x="306" y="418" type="curve" smooth="yes"/>
      <point x="320" y="408"/>
      <point x="333" y="395"/>
      <point x="343" y="379" type="curve" smooth="yes"/>
      <point x="351" y="362"/>
      <point x="358" y="342"/>
      <point x="364" y="320" type="curve" smooth="yes"/>
      <point x="368" y="296"/>
      <point x="371" y="273"/>
      <point x="371" y="251" type="curve" smooth="yes"/>
      <point x="371" y="226"/>
      <point x="368" y="203"/>
      <point x="364" y="181" type="curve" smooth="yes"/>
      <point x="358" y="158"/>
      <point x="351" y="138"/>
      <point x="342" y="122" type="curve" smooth="yes"/>
      <point x="332" y="106"/>
      <point x="321" y="94"/>
      <point x="307" y="86" type="curve" smooth="yes"/>
      <point x="293" y="77"/>
      <point x="276" y="73"/>
      <point x="256" y="73" type="curve" smooth="yes"/>
      <point x="234" y="73"/>
      <point x="216" y="77"/>
      <point x="202" y="86" type="curve" smooth="yes"/>
      <point x="187" y="94"/>
      <point x="175" y="106"/>
      <point x="166" y="121" type="curve" smooth="yes"/>
      <point x="157" y="137"/>
      <point x="150" y="157"/>
      <point x="146" y="179" type="curve" smooth="yes"/>
      <point x="140" y="201"/>
      <point x="138" y="224"/>
    </contour>
  </outline>
</glyph>
<glyph name="uni043F" format="2">
  <advance width="462"/>
  <unicode hex="043F"/>
  <outline>
    <contour>
      <point x="146" y="420" type="line"/>
      <point x="313" y="420" type="line"/>
      <point x="313" y="-13" type="line"/>
      <point x="415" y="-13" type="line"/>
      <point x="415" y="517" type="line"/>
      <point x="45" y="517" type="line"/>
      <point x="45" y="-13" type="line"/>
      <point x="146" y="-13" type="line"/>
    </contour>
  </outline>
</glyph>
<glyph name="uni0448" format="2">
  <advance width="571"/>
  <unicode hex="0448"/>
  <outline>
    <contour>
      <point x="234" y="84" type="line"/>
      <point x="143" y="84" type="line"/>
      <point x="143" y="517" type="line"/>
      <point x="42" y="517" type="line"/>
      <point x="42" y="-13" type="line"/>
      <point x="521" y="-13" type="line"/>
      <point x="521" y="517" type="line"/>
      <point x="419" y="517" type="line"/>
      <point x="419" y="84" type="line"/>
      <point x="336" y="84" type="line"/>
      <point x="336" y="517" type="line"/>
      <point x="234" y="517" type="line"/>
    </contour>
  </outline>
</glyph>
<glyph name="uni0449" format="2">
  <advance width="582"/>
  <unicode hex="0449"/>
  <outline>
    <contour>
      <point x="505" y="517" type="line"/>
      <point x="403" y="517" type="line"/>
      <point x="403" y="84" type="line"/>
      <point x="320" y="84" type="line"/>
      <point x="320" y="517" type="line"/>
      <point x="218" y="517" type="line"/>
      <point x="218" y="84" type="line"/>
      <point x="127" y="84" type="line"/>
      <point x="127" y="517" type="line"/>
      <point x="26" y="517" type="line"/>
      <point x="26" y="-13" type="line"/>
      <point x="465" y="-13" type="line"/>
      <point x="465" y="-79" type="line"/>
      <point x="566" y="-79" type="line"/>
      <point x="566" y="84" type="line"/>
      <point x="505" y="84" type="line"/>
    </contour>
  </outline>
</glyph>
<glyph name="uni044E" format="2">
  <advance width="625"/>
  <unicode hex="044E"/>
  <outline>
    <contour>
      <point x="382" y="-24" type="curve" smooth="yes"/>
      <point x="412" y="-24"/>
      <point x="441" y="-17"/>
      <point x="467" y="-4" type="curve" smooth="yes"/>
      <point x="493" y="10"/>
      <point x="515" y="29"/>
      <point x="534" y="54" type="curve" smooth="yes"/>
      <point x="552" y="76"/>
      <point x="567" y="105"/>
      <point x="578" y="140" type="curve" smooth="yes"/>
      <point x="588" y="174"/>
      <point x="594" y="212"/>
      <point x="594" y="252" type="curve" smooth="yes"/>
      <point x="594" y="292"/>
      <point x="588" y="329"/>
      <point x="578" y="363" type="curve" smooth="yes"/>
      <point x="567" y="396"/>
      <point x="553" y="425"/>
      <point x="535" y="450" type="curve" smooth="yes"/>
      <point x="515" y="474"/>
      <point x="493" y="494"/>
      <point x="467" y="508" type="curve" smooth="yes"/>
      <point x="441" y="522"/>
      <point x="412" y="529"/>
      <point x="380" y="529" type="curve" smooth="yes"/>
      <point x="350" y="529"/>
      <point x="323" y="522"/>
      <point x="299" y="508" type="curve" smooth="yes"/>
      <point x="274" y="494"/>
      <point x="252" y="476"/>
      <point x="234" y="454" type="curve" smooth="yes"/>
      <point x="216" y="432"/>
      <point x="201" y="406"/>
      <point x="191" y="377" type="curve" smooth="yes"/>
      <point x="180" y="347"/>
      <point x="174" y="321"/>
      <point x="173" y="301" type="curve"/>
      <point x="143" y="301" type="line"/>
      <point x="143" y="517" type="line"/>
      <point x="42" y="517" type="line"/>
      <point x="42" y="-13" type="line"/>
      <point x="143" y="-13" type="line"/>
      <point x="143" y="204" type="line"/>
      <point x="171" y="204" type="line"/>
      <point x="175" y="140"/>
      <point x="196" y="86"/>
      <point x="236" y="42" type="curve" smooth="yes"/>
      <point x="275" y="-2"/>
      <point x="324" y="-24"/>
    </contour>
    <contour>
      <point x="282" y="251" type="curve" smooth="yes"/>
      <point x="282" y="275"/>
      <point x="284" y="299"/>
      <point x="289" y="323" type="curve" smooth="yes"/>
      <point x="293" y="345"/>
      <point x="300" y="365"/>
      <point x="308" y="381" type="curve" smooth="yes"/>
      <point x="316" y="397"/>
      <point x="327" y="410"/>
      <point x="339" y="419" type="curve" smooth="yes"/>
      <point x="351" y="427"/>
      <point x="364" y="432"/>
      <point x="379" y="432" type="curve" smooth="yes"/>
      <point x="393" y="432"/>
      <point x="407" y="427"/>
      <point x="420" y="419" type="curve" smooth="yes"/>
      <point x="432" y="409"/>
      <point x="442" y="396"/>
      <point x="451" y="380" type="curve" smooth="yes"/>
      <point x="459" y="362"/>
      <point x="466" y="342"/>
      <point x="472" y="320" type="curve" smooth="yes"/>
      <point x="477" y="297"/>
      <point x="480" y="274"/>
      <point x="480" y="252" type="curve" smooth="yes"/>
      <point x="480" y="227"/>
      <point x="477" y="203"/>
      <point x="472" y="181" type="curve" smooth="yes"/>
      <point x="466" y="158"/>
      <point x="459" y="138"/>
      <point x="451" y="122" type="curve" smooth="yes"/>
      <point x="442" y="106"/>
      <point x="432" y="94"/>
      <point x="421" y="86" type="curve" smooth="yes"/>
      <point x="409" y="77"/>
      <point x="396" y="73"/>
      <point x="383" y="73" type="curve" smooth="yes"/>
      <point x="367" y="73"/>
      <point x="354" y="77"/>
      <point x="343" y="86" type="curve" smooth="yes"/>
      <point x="331" y="94"/>
      <point x="320" y="105"/>
      <point x="311" y="121" type="curve" smooth="yes"/>
      <point x="302" y="137"/>
      <point x="295" y="157"/>
      <point x="290" y="180" type="curve" smooth="yes"/>
      <point x="284" y="202"/>
      <point x="282" y="225"/>
    </contour>
  </outline>
</glyph>
<glyph name="uni044F" format="2">
  <advance width="453"/>
  <unicode hex="044F"/>
  <outline>
    <contour>
      <point x="292" y="290" type="line"/>
      <point x="239" y="290" type="line" smooth="yes"/>
      <point x="222" y="290"/>
      <point x="208" y="291"/>
      <point x="198" y="293" type="curve" smooth="yes"/>
      <point x="186" y="295"/>
      <point x="176" y="298"/>
      <point x="168" y="302" type="curve" smooth="yes"/>
      <point x="161" y="306"/>
      <point x="155" y="313"/>
      <point x="151" y="323" type="curve" smooth="yes"/>
      <point x="145" y="331"/>
      <point x="143" y="344"/>
      <point x="143" y="361" type="curve" smooth="yes"/>
      <point x="143" y="374"/>
      <point x="145" y="385"/>
      <point x="150" y="393" type="curve" smooth="yes"/>
      <point x="154" y="400"/>
      <point x="160" y="405"/>
      <point x="168" y="409" type="curve" smooth="yes"/>
      <point x="174" y="413"/>
      <point x="184" y="416"/>
      <point x="196" y="418" type="curve" smooth="yes"/>
      <point x="208" y="419"/>
      <point x="219" y="420"/>
      <point x="229" y="420" type="curve" smooth="yes"/>
      <point x="301" y="420" type="line"/>
      <point x="301" y="290" type="line"/>
    </contour>
    <contour>
      <point x="301" y="191" type="line"/>
      <point x="301" y="-13" type="line"/>
      <point x="403" y="-13" type="line"/>
      <point x="403" y="517" type="line"/>
      <point x="234" y="517" type="line" smooth="yes"/>
      <point x="208" y="517"/>
      <point x="184" y="515"/>
      <point x="162" y="511" type="curve" smooth="yes"/>
      <point x="139" y="507"/>
      <point x="118" y="499"/>
      <point x="100" y="487" type="curve" smooth="yes"/>
      <point x="79" y="475"/>
      <point x="63" y="459"/>
      <point x="53" y="438" type="curve" smooth="yes"/>
      <point x="41" y="416"/>
      <point x="36" y="391"/>
      <point x="36" y="361" type="curve" smooth="yes"/>
      <point x="36" y="321"/>
      <point x="45" y="290"/>
      <point x="65" y="266" type="curve" smooth="yes"/>
      <point x="84" y="241"/>
      <point x="96" y="228"/>
      <point x="101" y="226" type="curve"/>
      <point x="97" y="221"/>
      <point x="81" y="204" type="curve" smooth="yes"/>
      <point x="65" y="186"/>
      <point x="54" y="161"/>
      <point x="50" y="130" type="curve" smooth="yes"/>
      <point x="23" y="-13" type="line"/>
      <point x="134" y="-13" type="line"/>
      <point x="153" y="102" type="line" smooth="yes"/>
      <point x="157" y="134"/>
      <point x="168" y="157"/>
      <point x="184" y="171" type="curve" smooth="yes"/>
      <point x="199" y="184"/>
      <point x="230" y="191"/>
      <point x="278" y="191" type="curve" smooth="yes"/>
      <point x="292" y="191" type="line"/>
    </contour>
  </outline>
</glyph>
<glyph name="uni0451" format="2">
  <advance width="480"/>
  <unicode hex="0451"/>
  <outline>
    <contour>
      <point x="87" y="675" type="line"/>
      <point x="87" y="538" type="line"/>
      <point x="216" y="538" type="line"/>
      <point x="216" y="675" type="line"/>
    </contour>
    <contour>
      <point x="275" y="675" type="line"/>
      <point x="275" y="538" type="line"/>
      <point x="405" y="538" type="line"/>
      <point x="405" y="675" type="line"/>
    </contour>
    <contour>
      <point x="436" y="97" type="line"/>
      <point x="399" y="85"/>
      <point x="373" y="78"/>
      <point x="357" y="76" type="curve" smooth="yes"/>
      <point x="340" y="74"/>
      <point x="328" y="73"/>
      <point x="321" y="73" type="curve" smooth="yes"/>
      <point x="304" y="73"/>
      <point x="285" y="75"/>
      <point x="265" y="79" type="curve" smooth="yes"/>
      <point x="243" y="82"/>
      <point x="228" y="86"/>
      <point x="219" y="91" type="curve" smooth="yes"/>
      <point x="189" y="109"/>
      <point x="168" y="131"/>
      <point x="157" y="159" type="curve" smooth="yes"/>
      <point x="145" y="185"/>
      <point x="138" y="208"/>
      <point x="136" y="226" type="curve"/>
      <point x="450" y="226" type="line"/>
      <point x="450" y="265" type="line" smooth="yes"/>
      <point x="450" y="299"/>
      <point x="447" y="331"/>
      <point x="443" y="360" type="curve" smooth="yes"/>
      <point x="438" y="388"/>
      <point x="429" y="414"/>
      <point x="415" y="438" type="curve" smooth="yes"/>
      <point x="398" y="466"/>
      <point x="376" y="489"/>
      <point x="349" y="505" type="curve" smooth="yes"/>
      <point x="321" y="521"/>
      <point x="290" y="529"/>
      <point x="257" y="529" type="curve" smooth="yes"/>
      <point x="183" y="529"/>
      <point x="125" y="504"/>
      <point x="85" y="454" type="curve" smooth="yes"/>
      <point x="44" y="403"/>
      <point x="24" y="339"/>
      <point x="24" y="263" type="curve" smooth="yes"/>
      <point x="24" y="217"/>
      <point x="31" y="176"/>
      <point x="45" y="140" type="curve" smooth="yes"/>
      <point x="59" y="103"/>
      <point x="76" y="73"/>
      <point x="96" y="50" type="curve" smooth="yes"/>
      <point x="119" y="24"/>
      <point x="149" y="6"/>
      <point x="186" y="-6" type="curve" smooth="yes"/>
      <point x="222" y="-18"/>
      <point x="261" y="-24"/>
      <point x="302" y="-24" type="curve" smooth="yes"/>
      <point x="324" y="-24"/>
      <point x="345" y="-22"/>
      <point x="366" y="-19" type="curve" smooth="yes"/>
      <point x="386" y="-15"/>
      <point x="409" y="-9"/>
      <point x="436" y="0" type="curve"/>
    </contour>
    <contour>
      <point x="323" y="389" type="curve" smooth="yes"/>
      <point x="329" y="377"/>
      <point x="333" y="364"/>
      <point x="335" y="348" type="curve" smooth="yes"/>
      <point x="336" y="332"/>
      <point x="337" y="323"/>
      <point x="337" y="322" type="curve"/>
      <point x="137" y="322" type="line"/>
      <point x="139" y="350"/>
      <point x="152" y="375"/>
      <point x="174" y="398" type="curve" smooth="yes"/>
      <point x="195" y="420"/>
      <point x="221" y="432"/>
      <point x="253" y="432" type="curve" smooth="yes"/>
      <point x="268" y="432"/>
      <point x="281" y="428"/>
      <point x="293" y="421" type="curve" smooth="yes"/>
      <point x="303" y="413"/>
      <point x="313" y="403"/>
    </contour>
  </outline>
</glyph>
